<svg width="1920" height="1489" viewBox="0 0 1920 1489" fill="none" xmlns="http://www.w3.org/2000/svg">
<mask id="path-1-outside-1_77_35" maskUnits="userSpaceOnUse" x="-1" y="253.635" width="1922" height="1235" fill="black">
<rect fill="white" x="-1" y="253.635" width="1922" height="1235"/>
<path fill-rule="evenodd" clip-rule="evenodd" d="M0 1425.53V368.634C35.8582 634.57 156.916 959.646 615.5 1108.91C963.159 1222.07 1231.07 905.594 1466.22 627.815C1561.48 515.284 1651.36 409.103 1739 340.409C1815.86 280.16 1875.96 259.343 1920 255.635V978.256C1684.63 1281.51 1252.52 1655.91 862 1405.41C420.88 1122.45 107.983 1296.71 0 1425.53Z"/>
</mask>
<path fill-rule="evenodd" clip-rule="evenodd" d="M0 1425.53V368.634C35.8582 634.57 156.916 959.646 615.5 1108.91C963.159 1222.07 1231.07 905.594 1466.22 627.815C1561.48 515.284 1651.36 409.103 1739 340.409C1815.86 280.16 1875.96 259.343 1920 255.635V978.256C1684.63 1281.51 1252.52 1655.91 862 1405.41C420.88 1122.45 107.983 1296.71 0 1425.53Z" fill="#FFF2F2"/>
<path d="M0 1425.53H-1V1428.28L0.766381 1426.18L0 1425.53ZM0 368.634L0.991031 368.5L-1 368.634H0ZM615.5 1108.91L615.81 1107.96L615.81 1107.96L615.5 1108.91ZM1466.22 627.815L1466.98 628.462L1466.22 627.815ZM1739 340.409L1738.38 339.622L1738.38 339.622L1739 340.409ZM1920 255.635H1921V254.547L1919.92 254.638L1920 255.635ZM1920 978.256L1920.79 978.869L1921 978.599V978.256H1920ZM862 1405.41L862.54 1404.57L862.54 1404.57L862 1405.41ZM1 1425.53V368.634H-1V1425.53H1ZM615.81 1107.96C386.711 1033.39 241.987 914.931 150.051 781.955C58.1027 648.963 18.9082 501.38 0.991031 368.5L-0.991031 368.768C16.95 501.824 56.2137 649.747 148.405 783.093C240.608 916.454 385.705 1035.17 615.191 1109.86L615.81 1107.96ZM1465.45 627.169C1347.86 766.083 1222.17 914.54 1082.47 1014.15C942.798 1113.73 789.237 1164.41 615.81 1107.96L615.191 1109.86C789.422 1166.57 943.643 1115.59 1083.63 1015.78C1223.58 915.995 1349.42 767.327 1466.98 628.462L1465.45 627.169ZM1738.38 339.622C1650.65 408.393 1560.69 514.665 1465.45 627.169L1466.98 628.462C1562.26 515.903 1652.08 409.813 1739.62 341.196L1738.38 339.622ZM1919.92 254.638C1875.63 258.367 1815.35 279.288 1738.38 339.622L1739.62 341.196C1816.37 281.032 1876.29 260.319 1920.08 256.631L1919.92 254.638ZM1919 255.635V978.256H1921V255.635H1919ZM861.46 1406.25C1057.13 1531.76 1263.19 1500.67 1449.65 1400.37C1636.09 1300.08 1803.06 1130.55 1920.79 978.869L1919.21 977.643C1801.57 1129.21 1634.8 1298.51 1448.7 1398.61C1262.64 1498.7 1057.39 1529.56 862.54 1404.57L861.46 1406.25ZM0.766381 1426.18C54.6138 1361.93 159.625 1286.29 306.237 1262.04C452.823 1237.79 641.08 1264.89 861.46 1406.25L862.54 1404.57C641.801 1262.97 453.049 1235.72 305.911 1260.06C158.799 1284.4 53.3693 1360.31 -0.766381 1424.89L0.766381 1426.18Z" fill="black" mask="url(#path-1-outside-1_77_35)"/>
</svg>
