<svg width="151" height="150" viewBox="0 0 151 150" fill="none" xmlns="http://www.w3.org/2000/svg">
<rect x="1.41406" y="0.5" width="148.85" height="148.85" rx="40.5" fill="#06C755" stroke="black"/>
<mask id="path-2-outside-1_7_258" maskUnits="userSpaceOnUse" x="25.6709" y="26.6084" width="102" height="97" fill="black">
<rect fill="white" x="25.6709" y="26.6084" width="102" height="97"/>
<path fill-rule="evenodd" clip-rule="evenodd" d="M73.967 27.6202C73.8186 27.6287 73.3128 27.6572 72.843 27.6835C56.8361 28.5793 42.2204 35.8289 33.824 47.0373C30.1029 52.0047 27.792 57.4616 26.965 63.2338C26.7079 65.0284 26.672 65.5951 26.6709 67.8788C26.6703 69.2424 26.6901 70.1854 26.7281 70.596C26.918 72.6459 27.1824 74.235 27.6363 76.0527C30.6699 88.2019 40.4941 98.5558 54.2074 104.056C58.3344 105.712 62.8622 106.923 67.3804 107.58C69.6573 107.912 71.3259 108.573 72.1755 109.48C72.7799 110.125 72.9926 111.032 72.9416 112.745C72.9081 113.872 72.8645 114.206 72.3685 117.147C72.0567 118.996 71.9503 119.732 71.9339 120.156C71.8922 121.232 72.1537 121.816 72.8166 122.127C73.054 122.238 73.1049 122.244 73.7422 122.241C74.352 122.238 74.4674 122.224 74.9468 122.095C76.2558 121.744 78.0025 120.903 80.9806 119.19C86.97 115.746 94.7876 110.51 100.905 105.844C108.134 100.33 113.066 95.7816 117.237 90.7837C122.141 84.9069 124.999 78.8622 125.89 72.4822C126.13 70.7687 126.163 70.2114 126.163 67.9237C126.163 65.5902 126.129 65.0435 125.869 63.2338C124.701 55.0753 120.5 47.4452 113.778 41.2734C106.788 34.8546 97.5842 30.4232 87.3725 28.5597C85.0709 28.1397 82.9676 27.885 80.1039 27.6795C79.4556 27.6329 74.5696 27.5858 73.967 27.6202ZM47.7339 57.1953C47.9625 57.2638 48.2087 57.4704 48.3191 57.6864C48.4063 57.8573 48.4077 57.9913 48.4077 66.5746V75.2892L53.1846 75.2925C55.8119 75.2944 58.0096 75.3048 58.0683 75.3156C58.3989 75.3766 58.7535 75.6934 58.8367 76.0022C58.8678 76.1175 58.884 76.8645 58.8822 78.0986C58.8796 79.9128 58.8747 80.0251 58.791 80.1888C58.6946 80.3778 58.4099 80.6849 58.3691 80.6442C58.3551 80.6302 58.3437 80.638 58.3437 80.6616C58.3437 80.6851 58.2981 80.7133 58.2425 80.7241C58.1103 80.7499 43.7405 80.7499 43.6083 80.7241C43.5527 80.7133 43.5071 80.6931 43.5071 80.6793C43.5071 80.6654 43.4362 80.616 43.3496 80.5693C43.243 80.512 43.1556 80.4103 43.0794 80.2548L42.9669 80.025L42.9674 68.9581L42.968 57.8911L43.0626 57.6959C43.157 57.501 43.4479 57.2263 43.5803 57.2068C43.6188 57.2012 43.6611 57.1858 43.6743 57.1726C43.7259 57.121 47.5574 57.1425 47.7339 57.1953ZM66.5612 57.1977C66.8279 57.2648 67.1567 57.5811 67.2356 57.8463C67.3105 58.0984 67.3157 79.7991 67.2409 80.0723C67.2091 80.1883 67.1151 80.326 66.9759 80.4611C66.6562 80.7709 66.6001 80.7774 64.4131 80.7604L62.5473 80.746L62.3328 80.62C62.2148 80.5507 62.063 80.4107 61.9956 80.3089L61.873 80.1238L61.8614 69.0012L61.8499 57.8787L61.9548 57.6802C62.0714 57.4597 62.3436 57.2446 62.5753 57.1899C62.8286 57.1302 66.32 57.137 66.5612 57.1977ZM75.45 57.2092C75.5369 57.2454 75.608 57.2658 75.608 57.2546C75.608 57.1617 76.0131 57.653 76.6841 58.5596C77.1229 59.1525 78.4194 60.9007 79.5652 62.4445C80.7111 63.9883 81.9854 65.7062 82.397 66.262C82.8087 66.8178 83.6784 67.99 84.3297 68.8669C84.981 69.7438 85.5864 70.5616 85.675 70.6843L85.8362 70.9074L85.8587 64.3743C85.8802 58.1082 85.8846 57.8341 85.9652 57.6721C86.0367 57.5284 86.1654 57.3951 86.3775 57.2453C86.4799 57.173 86.6263 57.167 88.5637 57.1564C90.5686 57.1454 90.5721 57.1456 90.7613 57.2462C91.0364 57.3924 91.2407 57.6514 91.2974 57.9254C91.3304 58.0847 91.3414 61.5204 91.3331 69.0914L91.3212 80.0274L91.2227 80.2113C91.0934 80.4527 90.8485 80.6632 90.628 80.7225C90.515 80.7529 89.7471 80.7692 88.5099 80.7675C86.8233 80.7651 86.555 80.7555 86.4612 80.6941C86.4018 80.6552 86.3526 80.6408 86.3519 80.6622C86.3511 80.6836 86.3299 80.6657 86.3047 80.6225C86.2794 80.5792 86.2295 80.5439 86.1936 80.5439C86.1578 80.5439 86.1284 80.5287 86.1284 80.5102C86.1283 80.4917 86.0767 80.4165 86.0136 80.3433C85.9506 80.2701 85.8579 80.1437 85.8077 80.0626C85.7575 79.9815 85.6967 79.9151 85.6725 79.9151C85.6483 79.9151 85.6402 79.8963 85.6545 79.8733C85.6687 79.8503 85.6345 79.7993 85.5784 79.7601C85.5224 79.7209 85.4866 79.6811 85.499 79.6716C85.5114 79.6622 85.4553 79.5817 85.3743 79.4929C85.2933 79.404 85.2407 79.3313 85.2575 79.3313C85.2742 79.3313 85.2413 79.2908 85.1843 79.2414C85.1273 79.192 85.0969 79.1516 85.1168 79.1516C85.1368 79.1516 85.1064 79.1112 85.0494 79.0618C84.9924 79.0124 84.964 78.9717 84.9863 78.9713C85.0087 78.9709 85.0065 78.9558 84.9816 78.9376C84.9566 78.9195 84.8858 78.829 84.8242 78.7365C84.7626 78.644 84.697 78.5683 84.6785 78.5681C84.66 78.5679 84.6448 78.5368 84.6448 78.499C84.6448 78.4611 84.6144 78.4186 84.5773 78.4044C84.5402 78.3901 84.5099 78.3503 84.5099 78.3159C84.5099 78.2815 84.489 78.2534 84.4635 78.2534C84.438 78.2534 84.4037 78.218 84.3871 78.1748C84.359 78.1012 84.3322 78.0623 84.216 77.9262C84.1904 77.8962 84.0812 77.7453 83.9734 77.5909C83.8657 77.4366 83.7568 77.3102 83.7316 77.3102C83.7063 77.3102 83.6986 77.2973 83.7145 77.2814C83.7411 77.2549 83.423 76.836 83.3191 76.7607C83.294 76.7426 83.2918 76.7275 83.3141 76.7271C83.3365 76.7267 83.308 76.686 83.251 76.6366C83.194 76.5872 83.1656 76.5464 83.188 76.5461C83.2103 76.5457 83.2083 76.5305 83.1835 76.5124C83.1587 76.4942 83.0801 76.3935 83.0088 76.2885C82.9375 76.1835 82.8605 76.0976 82.8376 76.0976C82.8148 76.0976 82.8087 76.0773 82.8241 76.0524C82.8395 76.0275 82.8205 75.995 82.7818 75.9802C82.7432 75.9654 82.7115 75.9245 82.7115 75.8893C82.7115 75.8541 82.6812 75.8137 82.6441 75.7995C82.607 75.7853 82.5766 75.7547 82.5766 75.7316C82.5766 75.7085 82.5561 75.6652 82.5308 75.6354C82.3724 75.4477 82.2957 75.3468 82.1456 75.1293C82.053 74.9949 81.9592 74.885 81.9371 74.885C81.915 74.885 81.9086 74.8662 81.9229 74.8432C81.9371 74.8202 81.9106 74.7747 81.8641 74.7421C81.8176 74.7095 81.7818 74.6698 81.7846 74.6536C81.7875 74.6376 81.7236 74.5516 81.6427 74.4628C81.5617 74.3739 81.5091 74.3012 81.5259 74.3012C81.5426 74.3012 81.5097 74.2607 81.4527 74.2113C81.3957 74.1619 81.363 74.1215 81.3801 74.1215C81.3972 74.1215 81.3852 74.0905 81.3533 74.0526C81.2253 73.9005 81.201 73.8681 81.093 73.7064C81.0311 73.6139 80.9654 73.5382 80.9469 73.538C80.9284 73.5378 80.9132 73.5151 80.9132 73.4874C80.9132 73.4598 80.8575 73.3721 80.7895 73.2924C80.7215 73.2128 80.6355 73.1016 80.5984 73.0452C80.5614 72.9889 80.51 72.92 80.4844 72.8921C80.4588 72.8643 80.3496 72.7152 80.2418 72.5608C80.1341 72.4065 80.0274 72.2801 80.0048 72.2801C79.9822 72.2801 79.9754 72.2613 79.9896 72.2383C80.0038 72.2153 79.9702 72.1648 79.9148 72.126C79.8594 72.0873 79.8326 72.0556 79.8551 72.0556C79.8776 72.0556 79.8568 72.0176 79.8089 71.9713C79.6764 71.8431 79.5618 71.6963 79.5942 71.6963C79.6101 71.6963 79.5764 71.6559 79.5194 71.6065C79.4624 71.5571 79.434 71.5163 79.4563 71.516C79.4787 71.5156 79.4765 71.5004 79.4516 71.4823C79.4266 71.4641 79.3558 71.3736 79.2942 71.2812C79.2326 71.1887 79.167 71.1129 79.1485 71.1128C79.13 71.1126 79.1148 71.0815 79.1148 71.0437C79.1148 71.0058 79.0844 70.9632 79.0474 70.9491C79.0103 70.9348 78.9799 70.8972 78.9799 70.8654C78.9799 70.8337 78.9496 70.796 78.9125 70.7818C78.8754 70.7676 78.845 70.7343 78.845 70.7077C78.845 70.6636 78.8246 70.6332 78.686 70.4709C78.6604 70.4409 78.5512 70.29 78.4435 70.1356C78.3357 69.9813 78.2291 69.8549 78.2064 69.8549C78.1838 69.8549 78.177 69.8361 78.1912 69.8131C78.2054 69.7901 78.179 69.7446 78.1325 69.712C78.0859 69.6794 78.0469 69.6361 78.0458 69.6155C78.0446 69.5951 77.9807 69.5091 77.9038 69.4247C77.8268 69.3402 77.7775 69.2711 77.7943 69.2711C77.811 69.2711 77.7781 69.2306 77.7211 69.1812C77.6641 69.1318 77.632 69.0914 77.6499 69.0914C77.6679 69.0914 77.6558 69.0636 77.6231 69.0296C77.5905 68.9955 77.5334 68.9215 77.4963 68.865C77.4592 68.8084 77.3951 68.7268 77.3539 68.6835C77.3127 68.6403 77.2903 68.5936 77.3041 68.5797C77.318 68.5659 77.2961 68.5418 77.2554 68.5263C77.2148 68.5107 77.1815 68.4692 77.1815 68.434C77.1815 68.3988 77.1512 68.3584 77.1141 68.3442C77.077 68.3299 77.0467 68.2988 77.0467 68.275C77.0467 68.2512 77.0214 68.2053 76.9905 68.173C76.9596 68.1408 76.9039 68.0696 76.8668 68.0148C76.8297 67.9601 76.7631 67.8727 76.7187 67.8205C76.6743 67.7683 76.5968 67.659 76.5464 67.5777C76.4961 67.4963 76.4351 67.4297 76.4109 67.4297C76.3868 67.4297 76.3786 67.4109 76.3929 67.3878C76.4071 67.3648 76.3781 67.3175 76.3284 67.2828C76.2786 67.248 76.2481 67.2094 76.2604 67.1971C76.2728 67.1847 76.2422 67.1378 76.1924 67.0928L76.1019 67.011L76.1028 73.508C76.1036 78.9456 76.0936 80.0288 76.0414 80.1509C75.9784 80.2985 75.6979 80.675 75.6979 80.6119C75.6979 80.5931 75.6656 80.6046 75.626 80.6373C75.5866 80.6701 75.5107 80.7079 75.4575 80.7214C75.4043 80.7349 74.4494 80.746 73.3355 80.746C71.4725 80.746 71.3006 80.7396 71.1887 80.6663C71.1218 80.6226 71.0671 80.598 71.0671 80.6118C71.0671 80.6536 70.8147 80.3494 70.7499 80.2295C70.7166 80.1677 70.6837 80.0869 70.6769 80.0498C70.67 80.0128 70.664 75.0119 70.6636 68.9368L70.6628 57.8911L70.7575 57.6959C70.8519 57.501 71.1428 57.2263 71.2752 57.2068C71.3136 57.2012 71.3559 57.1858 71.3691 57.1726C71.3824 57.1593 72.2704 57.1473 73.3426 57.1459C74.9594 57.1437 75.319 57.1545 75.45 57.2092ZM110.025 57.2418C110.225 57.3511 110.408 57.5473 110.502 57.7512C110.578 57.9166 110.584 58.0857 110.585 59.8747C110.586 61.5321 110.576 61.8432 110.516 61.9856C110.428 62.1976 110.254 62.3813 110.024 62.5044L109.844 62.6009L105.011 62.6054L100.178 62.6098L100.166 64.4134L100.155 66.2171H104.913C110.216 66.2171 109.974 66.2035 110.281 66.5189C110.59 66.8356 110.586 66.8033 110.585 68.9665C110.584 71.1328 110.587 71.1068 110.269 71.4167C109.971 71.7063 110.162 71.6963 104.913 71.6963H100.156V73.504V75.3117L105 75.314C109.836 75.3164 109.845 75.3165 110.024 75.411C110.123 75.463 110.259 75.563 110.325 75.6331C110.585 75.9062 110.586 75.9199 110.586 78.041V79.9873L110.472 80.2156C110.351 80.4594 110.122 80.6504 109.863 80.7245C109.62 80.7942 95.6086 80.7835 95.3727 80.7135C95.1073 80.6348 94.7906 80.3062 94.7235 80.0399C94.6473 79.7378 94.6473 58.1756 94.7235 57.8734C94.7911 57.6051 95.1147 57.2685 95.3701 57.2007C95.4907 57.1687 97.8417 57.1558 102.718 57.1605C109.302 57.1668 109.9 57.1735 110.025 57.2418Z"/>
</mask>
<path fill-rule="evenodd" clip-rule="evenodd" d="M73.967 27.6202C73.8186 27.6287 73.3128 27.6572 72.843 27.6835C56.8361 28.5793 42.2204 35.8289 33.824 47.0373C30.1029 52.0047 27.792 57.4616 26.965 63.2338C26.7079 65.0284 26.672 65.5951 26.6709 67.8788C26.6703 69.2424 26.6901 70.1854 26.7281 70.596C26.918 72.6459 27.1824 74.235 27.6363 76.0527C30.6699 88.2019 40.4941 98.5558 54.2074 104.056C58.3344 105.712 62.8622 106.923 67.3804 107.58C69.6573 107.912 71.3259 108.573 72.1755 109.48C72.7799 110.125 72.9926 111.032 72.9416 112.745C72.9081 113.872 72.8645 114.206 72.3685 117.147C72.0567 118.996 71.9503 119.732 71.9339 120.156C71.8922 121.232 72.1537 121.816 72.8166 122.127C73.054 122.238 73.1049 122.244 73.7422 122.241C74.352 122.238 74.4674 122.224 74.9468 122.095C76.2558 121.744 78.0025 120.903 80.9806 119.19C86.97 115.746 94.7876 110.51 100.905 105.844C108.134 100.33 113.066 95.7816 117.237 90.7837C122.141 84.9069 124.999 78.8622 125.89 72.4822C126.13 70.7687 126.163 70.2114 126.163 67.9237C126.163 65.5902 126.129 65.0435 125.869 63.2338C124.701 55.0753 120.5 47.4452 113.778 41.2734C106.788 34.8546 97.5842 30.4232 87.3725 28.5597C85.0709 28.1397 82.9676 27.885 80.1039 27.6795C79.4556 27.6329 74.5696 27.5858 73.967 27.6202ZM47.7339 57.1953C47.9625 57.2638 48.2087 57.4704 48.3191 57.6864C48.4063 57.8573 48.4077 57.9913 48.4077 66.5746V75.2892L53.1846 75.2925C55.8119 75.2944 58.0096 75.3048 58.0683 75.3156C58.3989 75.3766 58.7535 75.6934 58.8367 76.0022C58.8678 76.1175 58.884 76.8645 58.8822 78.0986C58.8796 79.9128 58.8747 80.0251 58.791 80.1888C58.6946 80.3778 58.4099 80.6849 58.3691 80.6442C58.3551 80.6302 58.3437 80.638 58.3437 80.6616C58.3437 80.6851 58.2981 80.7133 58.2425 80.7241C58.1103 80.7499 43.7405 80.7499 43.6083 80.7241C43.5527 80.7133 43.5071 80.6931 43.5071 80.6793C43.5071 80.6654 43.4362 80.616 43.3496 80.5693C43.243 80.512 43.1556 80.4103 43.0794 80.2548L42.9669 80.025L42.9674 68.9581L42.968 57.8911L43.0626 57.6959C43.157 57.501 43.4479 57.2263 43.5803 57.2068C43.6188 57.2012 43.6611 57.1858 43.6743 57.1726C43.7259 57.121 47.5574 57.1425 47.7339 57.1953ZM66.5612 57.1977C66.8279 57.2648 67.1567 57.5811 67.2356 57.8463C67.3105 58.0984 67.3157 79.7991 67.2409 80.0723C67.2091 80.1883 67.1151 80.326 66.9759 80.4611C66.6562 80.7709 66.6001 80.7774 64.4131 80.7604L62.5473 80.746L62.3328 80.62C62.2148 80.5507 62.063 80.4107 61.9956 80.3089L61.873 80.1238L61.8614 69.0012L61.8499 57.8787L61.9548 57.6802C62.0714 57.4597 62.3436 57.2446 62.5753 57.1899C62.8286 57.1302 66.32 57.137 66.5612 57.1977ZM75.45 57.2092C75.5369 57.2454 75.608 57.2658 75.608 57.2546C75.608 57.1617 76.0131 57.653 76.6841 58.5596C77.1229 59.1525 78.4194 60.9007 79.5652 62.4445C80.7111 63.9883 81.9854 65.7062 82.397 66.262C82.8087 66.8178 83.6784 67.99 84.3297 68.8669C84.981 69.7438 85.5864 70.5616 85.675 70.6843L85.8362 70.9074L85.8587 64.3743C85.8802 58.1082 85.8846 57.8341 85.9652 57.6721C86.0367 57.5284 86.1654 57.3951 86.3775 57.2453C86.4799 57.173 86.6263 57.167 88.5637 57.1564C90.5686 57.1454 90.5721 57.1456 90.7613 57.2462C91.0364 57.3924 91.2407 57.6514 91.2974 57.9254C91.3304 58.0847 91.3414 61.5204 91.3331 69.0914L91.3212 80.0274L91.2227 80.2113C91.0934 80.4527 90.8485 80.6632 90.628 80.7225C90.515 80.7529 89.7471 80.7692 88.5099 80.7675C86.8233 80.7651 86.555 80.7555 86.4612 80.6941C86.4018 80.6552 86.3526 80.6408 86.3519 80.6622C86.3511 80.6836 86.3299 80.6657 86.3047 80.6225C86.2794 80.5792 86.2295 80.5439 86.1936 80.5439C86.1578 80.5439 86.1284 80.5287 86.1284 80.5102C86.1283 80.4917 86.0767 80.4165 86.0136 80.3433C85.9506 80.2701 85.8579 80.1437 85.8077 80.0626C85.7575 79.9815 85.6967 79.9151 85.6725 79.9151C85.6483 79.9151 85.6402 79.8963 85.6545 79.8733C85.6687 79.8503 85.6345 79.7993 85.5784 79.7601C85.5224 79.7209 85.4866 79.6811 85.499 79.6716C85.5114 79.6622 85.4553 79.5817 85.3743 79.4929C85.2933 79.404 85.2407 79.3313 85.2575 79.3313C85.2742 79.3313 85.2413 79.2908 85.1843 79.2414C85.1273 79.192 85.0969 79.1516 85.1168 79.1516C85.1368 79.1516 85.1064 79.1112 85.0494 79.0618C84.9924 79.0124 84.964 78.9717 84.9863 78.9713C85.0087 78.9709 85.0065 78.9558 84.9816 78.9376C84.9566 78.9195 84.8858 78.829 84.8242 78.7365C84.7626 78.644 84.697 78.5683 84.6785 78.5681C84.66 78.5679 84.6448 78.5368 84.6448 78.499C84.6448 78.4611 84.6144 78.4186 84.5773 78.4044C84.5402 78.3901 84.5099 78.3503 84.5099 78.3159C84.5099 78.2815 84.489 78.2534 84.4635 78.2534C84.438 78.2534 84.4037 78.218 84.3871 78.1748C84.359 78.1012 84.3322 78.0623 84.216 77.9262C84.1904 77.8962 84.0812 77.7453 83.9734 77.5909C83.8657 77.4366 83.7568 77.3102 83.7316 77.3102C83.7063 77.3102 83.6986 77.2973 83.7145 77.2814C83.7411 77.2549 83.423 76.836 83.3191 76.7607C83.294 76.7426 83.2918 76.7275 83.3141 76.7271C83.3365 76.7267 83.308 76.686 83.251 76.6366C83.194 76.5872 83.1656 76.5464 83.188 76.5461C83.2103 76.5457 83.2083 76.5305 83.1835 76.5124C83.1587 76.4942 83.0801 76.3935 83.0088 76.2885C82.9375 76.1835 82.8605 76.0976 82.8376 76.0976C82.8148 76.0976 82.8087 76.0773 82.8241 76.0524C82.8395 76.0275 82.8205 75.995 82.7818 75.9802C82.7432 75.9654 82.7115 75.9245 82.7115 75.8893C82.7115 75.8541 82.6812 75.8137 82.6441 75.7995C82.607 75.7853 82.5766 75.7547 82.5766 75.7316C82.5766 75.7085 82.5561 75.6652 82.5308 75.6354C82.3724 75.4477 82.2957 75.3468 82.1456 75.1293C82.053 74.9949 81.9592 74.885 81.9371 74.885C81.915 74.885 81.9086 74.8662 81.9229 74.8432C81.9371 74.8202 81.9106 74.7747 81.8641 74.7421C81.8176 74.7095 81.7818 74.6698 81.7846 74.6536C81.7875 74.6376 81.7236 74.5516 81.6427 74.4628C81.5617 74.3739 81.5091 74.3012 81.5259 74.3012C81.5426 74.3012 81.5097 74.2607 81.4527 74.2113C81.3957 74.1619 81.363 74.1215 81.3801 74.1215C81.3972 74.1215 81.3852 74.0905 81.3533 74.0526C81.2253 73.9005 81.201 73.8681 81.093 73.7064C81.0311 73.6139 80.9654 73.5382 80.9469 73.538C80.9284 73.5378 80.9132 73.5151 80.9132 73.4874C80.9132 73.4598 80.8575 73.3721 80.7895 73.2924C80.7215 73.2128 80.6355 73.1016 80.5984 73.0452C80.5614 72.9889 80.51 72.92 80.4844 72.8921C80.4588 72.8643 80.3496 72.7152 80.2418 72.5608C80.1341 72.4065 80.0274 72.2801 80.0048 72.2801C79.9822 72.2801 79.9754 72.2613 79.9896 72.2383C80.0038 72.2153 79.9702 72.1648 79.9148 72.126C79.8594 72.0873 79.8326 72.0556 79.8551 72.0556C79.8776 72.0556 79.8568 72.0176 79.8089 71.9713C79.6764 71.8431 79.5618 71.6963 79.5942 71.6963C79.6101 71.6963 79.5764 71.6559 79.5194 71.6065C79.4624 71.5571 79.434 71.5163 79.4563 71.516C79.4787 71.5156 79.4765 71.5004 79.4516 71.4823C79.4266 71.4641 79.3558 71.3736 79.2942 71.2812C79.2326 71.1887 79.167 71.1129 79.1485 71.1128C79.13 71.1126 79.1148 71.0815 79.1148 71.0437C79.1148 71.0058 79.0844 70.9632 79.0474 70.9491C79.0103 70.9348 78.9799 70.8972 78.9799 70.8654C78.9799 70.8337 78.9496 70.796 78.9125 70.7818C78.8754 70.7676 78.845 70.7343 78.845 70.7077C78.845 70.6636 78.8246 70.6332 78.686 70.4709C78.6604 70.4409 78.5512 70.29 78.4435 70.1356C78.3357 69.9813 78.2291 69.8549 78.2064 69.8549C78.1838 69.8549 78.177 69.8361 78.1912 69.8131C78.2054 69.7901 78.179 69.7446 78.1325 69.712C78.0859 69.6794 78.0469 69.6361 78.0458 69.6155C78.0446 69.5951 77.9807 69.5091 77.9038 69.4247C77.8268 69.3402 77.7775 69.2711 77.7943 69.2711C77.811 69.2711 77.7781 69.2306 77.7211 69.1812C77.6641 69.1318 77.632 69.0914 77.6499 69.0914C77.6679 69.0914 77.6558 69.0636 77.6231 69.0296C77.5905 68.9955 77.5334 68.9215 77.4963 68.865C77.4592 68.8084 77.3951 68.7268 77.3539 68.6835C77.3127 68.6403 77.2903 68.5936 77.3041 68.5797C77.318 68.5659 77.2961 68.5418 77.2554 68.5263C77.2148 68.5107 77.1815 68.4692 77.1815 68.434C77.1815 68.3988 77.1512 68.3584 77.1141 68.3442C77.077 68.3299 77.0467 68.2988 77.0467 68.275C77.0467 68.2512 77.0214 68.2053 76.9905 68.173C76.9596 68.1408 76.9039 68.0696 76.8668 68.0148C76.8297 67.9601 76.7631 67.8727 76.7187 67.8205C76.6743 67.7683 76.5968 67.659 76.5464 67.5777C76.4961 67.4963 76.4351 67.4297 76.4109 67.4297C76.3868 67.4297 76.3786 67.4109 76.3929 67.3878C76.4071 67.3648 76.3781 67.3175 76.3284 67.2828C76.2786 67.248 76.2481 67.2094 76.2604 67.1971C76.2728 67.1847 76.2422 67.1378 76.1924 67.0928L76.1019 67.011L76.1028 73.508C76.1036 78.9456 76.0936 80.0288 76.0414 80.1509C75.9784 80.2985 75.6979 80.675 75.6979 80.6119C75.6979 80.5931 75.6656 80.6046 75.626 80.6373C75.5866 80.6701 75.5107 80.7079 75.4575 80.7214C75.4043 80.7349 74.4494 80.746 73.3355 80.746C71.4725 80.746 71.3006 80.7396 71.1887 80.6663C71.1218 80.6226 71.0671 80.598 71.0671 80.6118C71.0671 80.6536 70.8147 80.3494 70.7499 80.2295C70.7166 80.1677 70.6837 80.0869 70.6769 80.0498C70.67 80.0128 70.664 75.0119 70.6636 68.9368L70.6628 57.8911L70.7575 57.6959C70.8519 57.501 71.1428 57.2263 71.2752 57.2068C71.3136 57.2012 71.3559 57.1858 71.3691 57.1726C71.3824 57.1593 72.2704 57.1473 73.3426 57.1459C74.9594 57.1437 75.319 57.1545 75.45 57.2092ZM110.025 57.2418C110.225 57.3511 110.408 57.5473 110.502 57.7512C110.578 57.9166 110.584 58.0857 110.585 59.8747C110.586 61.5321 110.576 61.8432 110.516 61.9856C110.428 62.1976 110.254 62.3813 110.024 62.5044L109.844 62.6009L105.011 62.6054L100.178 62.6098L100.166 64.4134L100.155 66.2171H104.913C110.216 66.2171 109.974 66.2035 110.281 66.5189C110.59 66.8356 110.586 66.8033 110.585 68.9665C110.584 71.1328 110.587 71.1068 110.269 71.4167C109.971 71.7063 110.162 71.6963 104.913 71.6963H100.156V73.504V75.3117L105 75.314C109.836 75.3164 109.845 75.3165 110.024 75.411C110.123 75.463 110.259 75.563 110.325 75.6331C110.585 75.9062 110.586 75.9199 110.586 78.041V79.9873L110.472 80.2156C110.351 80.4594 110.122 80.6504 109.863 80.7245C109.62 80.7942 95.6086 80.7835 95.3727 80.7135C95.1073 80.6348 94.7906 80.3062 94.7235 80.0399C94.6473 79.7378 94.6473 58.1756 94.7235 57.8734C94.7911 57.6051 95.1147 57.2685 95.3701 57.2007C95.4907 57.1687 97.8417 57.1558 102.718 57.1605C109.302 57.1668 109.9 57.1735 110.025 57.2418Z" fill="white"/>
<path fill-rule="evenodd" clip-rule="evenodd" d="M73.967 27.6202C73.8186 27.6287 73.3128 27.6572 72.843 27.6835C56.8361 28.5793 42.2204 35.8289 33.824 47.0373C30.1029 52.0047 27.792 57.4616 26.965 63.2338C26.7079 65.0284 26.672 65.5951 26.6709 67.8788C26.6703 69.2424 26.6901 70.1854 26.7281 70.596C26.918 72.6459 27.1824 74.235 27.6363 76.0527C30.6699 88.2019 40.4941 98.5558 54.2074 104.056C58.3344 105.712 62.8622 106.923 67.3804 107.58C69.6573 107.912 71.3259 108.573 72.1755 109.48C72.7799 110.125 72.9926 111.032 72.9416 112.745C72.9081 113.872 72.8645 114.206 72.3685 117.147C72.0567 118.996 71.9503 119.732 71.9339 120.156C71.8922 121.232 72.1537 121.816 72.8166 122.127C73.054 122.238 73.1049 122.244 73.7422 122.241C74.352 122.238 74.4674 122.224 74.9468 122.095C76.2558 121.744 78.0025 120.903 80.9806 119.19C86.97 115.746 94.7876 110.51 100.905 105.844C108.134 100.33 113.066 95.7816 117.237 90.7837C122.141 84.9069 124.999 78.8622 125.89 72.4822C126.13 70.7687 126.163 70.2114 126.163 67.9237C126.163 65.5902 126.129 65.0435 125.869 63.2338C124.701 55.0753 120.5 47.4452 113.778 41.2734C106.788 34.8546 97.5842 30.4232 87.3725 28.5597C85.0709 28.1397 82.9676 27.885 80.1039 27.6795C79.4556 27.6329 74.5696 27.5858 73.967 27.6202ZM47.7339 57.1953C47.9625 57.2638 48.2087 57.4704 48.3191 57.6864C48.4063 57.8573 48.4077 57.9913 48.4077 66.5746V75.2892L53.1846 75.2925C55.8119 75.2944 58.0096 75.3048 58.0683 75.3156C58.3989 75.3766 58.7535 75.6934 58.8367 76.0022C58.8678 76.1175 58.884 76.8645 58.8822 78.0986C58.8796 79.9128 58.8747 80.0251 58.791 80.1888C58.6946 80.3778 58.4099 80.6849 58.3691 80.6442C58.3551 80.6302 58.3437 80.638 58.3437 80.6616C58.3437 80.6851 58.2981 80.7133 58.2425 80.7241C58.1103 80.7499 43.7405 80.7499 43.6083 80.7241C43.5527 80.7133 43.5071 80.6931 43.5071 80.6793C43.5071 80.6654 43.4362 80.616 43.3496 80.5693C43.243 80.512 43.1556 80.4103 43.0794 80.2548L42.9669 80.025L42.9674 68.9581L42.968 57.8911L43.0626 57.6959C43.157 57.501 43.4479 57.2263 43.5803 57.2068C43.6188 57.2012 43.6611 57.1858 43.6743 57.1726C43.7259 57.121 47.5574 57.1425 47.7339 57.1953ZM66.5612 57.1977C66.8279 57.2648 67.1567 57.5811 67.2356 57.8463C67.3105 58.0984 67.3157 79.7991 67.2409 80.0723C67.2091 80.1883 67.1151 80.326 66.9759 80.4611C66.6562 80.7709 66.6001 80.7774 64.4131 80.7604L62.5473 80.746L62.3328 80.62C62.2148 80.5507 62.063 80.4107 61.9956 80.3089L61.873 80.1238L61.8614 69.0012L61.8499 57.8787L61.9548 57.6802C62.0714 57.4597 62.3436 57.2446 62.5753 57.1899C62.8286 57.1302 66.32 57.137 66.5612 57.1977ZM75.45 57.2092C75.5369 57.2454 75.608 57.2658 75.608 57.2546C75.608 57.1617 76.0131 57.653 76.6841 58.5596C77.1229 59.1525 78.4194 60.9007 79.5652 62.4445C80.7111 63.9883 81.9854 65.7062 82.397 66.262C82.8087 66.8178 83.6784 67.99 84.3297 68.8669C84.981 69.7438 85.5864 70.5616 85.675 70.6843L85.8362 70.9074L85.8587 64.3743C85.8802 58.1082 85.8846 57.8341 85.9652 57.6721C86.0367 57.5284 86.1654 57.3951 86.3775 57.2453C86.4799 57.173 86.6263 57.167 88.5637 57.1564C90.5686 57.1454 90.5721 57.1456 90.7613 57.2462C91.0364 57.3924 91.2407 57.6514 91.2974 57.9254C91.3304 58.0847 91.3414 61.5204 91.3331 69.0914L91.3212 80.0274L91.2227 80.2113C91.0934 80.4527 90.8485 80.6632 90.628 80.7225C90.515 80.7529 89.7471 80.7692 88.5099 80.7675C86.8233 80.7651 86.555 80.7555 86.4612 80.6941C86.4018 80.6552 86.3526 80.6408 86.3519 80.6622C86.3511 80.6836 86.3299 80.6657 86.3047 80.6225C86.2794 80.5792 86.2295 80.5439 86.1936 80.5439C86.1578 80.5439 86.1284 80.5287 86.1284 80.5102C86.1283 80.4917 86.0767 80.4165 86.0136 80.3433C85.9506 80.2701 85.8579 80.1437 85.8077 80.0626C85.7575 79.9815 85.6967 79.9151 85.6725 79.9151C85.6483 79.9151 85.6402 79.8963 85.6545 79.8733C85.6687 79.8503 85.6345 79.7993 85.5784 79.7601C85.5224 79.7209 85.4866 79.6811 85.499 79.6716C85.5114 79.6622 85.4553 79.5817 85.3743 79.4929C85.2933 79.404 85.2407 79.3313 85.2575 79.3313C85.2742 79.3313 85.2413 79.2908 85.1843 79.2414C85.1273 79.192 85.0969 79.1516 85.1168 79.1516C85.1368 79.1516 85.1064 79.1112 85.0494 79.0618C84.9924 79.0124 84.964 78.9717 84.9863 78.9713C85.0087 78.9709 85.0065 78.9558 84.9816 78.9376C84.9566 78.9195 84.8858 78.829 84.8242 78.7365C84.7626 78.644 84.697 78.5683 84.6785 78.5681C84.66 78.5679 84.6448 78.5368 84.6448 78.499C84.6448 78.4611 84.6144 78.4186 84.5773 78.4044C84.5402 78.3901 84.5099 78.3503 84.5099 78.3159C84.5099 78.2815 84.489 78.2534 84.4635 78.2534C84.438 78.2534 84.4037 78.218 84.3871 78.1748C84.359 78.1012 84.3322 78.0623 84.216 77.9262C84.1904 77.8962 84.0812 77.7453 83.9734 77.5909C83.8657 77.4366 83.7568 77.3102 83.7316 77.3102C83.7063 77.3102 83.6986 77.2973 83.7145 77.2814C83.7411 77.2549 83.423 76.836 83.3191 76.7607C83.294 76.7426 83.2918 76.7275 83.3141 76.7271C83.3365 76.7267 83.308 76.686 83.251 76.6366C83.194 76.5872 83.1656 76.5464 83.188 76.5461C83.2103 76.5457 83.2083 76.5305 83.1835 76.5124C83.1587 76.4942 83.0801 76.3935 83.0088 76.2885C82.9375 76.1835 82.8605 76.0976 82.8376 76.0976C82.8148 76.0976 82.8087 76.0773 82.8241 76.0524C82.8395 76.0275 82.8205 75.995 82.7818 75.9802C82.7432 75.9654 82.7115 75.9245 82.7115 75.8893C82.7115 75.8541 82.6812 75.8137 82.6441 75.7995C82.607 75.7853 82.5766 75.7547 82.5766 75.7316C82.5766 75.7085 82.5561 75.6652 82.5308 75.6354C82.3724 75.4477 82.2957 75.3468 82.1456 75.1293C82.053 74.9949 81.9592 74.885 81.9371 74.885C81.915 74.885 81.9086 74.8662 81.9229 74.8432C81.9371 74.8202 81.9106 74.7747 81.8641 74.7421C81.8176 74.7095 81.7818 74.6698 81.7846 74.6536C81.7875 74.6376 81.7236 74.5516 81.6427 74.4628C81.5617 74.3739 81.5091 74.3012 81.5259 74.3012C81.5426 74.3012 81.5097 74.2607 81.4527 74.2113C81.3957 74.1619 81.363 74.1215 81.3801 74.1215C81.3972 74.1215 81.3852 74.0905 81.3533 74.0526C81.2253 73.9005 81.201 73.8681 81.093 73.7064C81.0311 73.6139 80.9654 73.5382 80.9469 73.538C80.9284 73.5378 80.9132 73.5151 80.9132 73.4874C80.9132 73.4598 80.8575 73.3721 80.7895 73.2924C80.7215 73.2128 80.6355 73.1016 80.5984 73.0452C80.5614 72.9889 80.51 72.92 80.4844 72.8921C80.4588 72.8643 80.3496 72.7152 80.2418 72.5608C80.1341 72.4065 80.0274 72.2801 80.0048 72.2801C79.9822 72.2801 79.9754 72.2613 79.9896 72.2383C80.0038 72.2153 79.9702 72.1648 79.9148 72.126C79.8594 72.0873 79.8326 72.0556 79.8551 72.0556C79.8776 72.0556 79.8568 72.0176 79.8089 71.9713C79.6764 71.8431 79.5618 71.6963 79.5942 71.6963C79.6101 71.6963 79.5764 71.6559 79.5194 71.6065C79.4624 71.5571 79.434 71.5163 79.4563 71.516C79.4787 71.5156 79.4765 71.5004 79.4516 71.4823C79.4266 71.4641 79.3558 71.3736 79.2942 71.2812C79.2326 71.1887 79.167 71.1129 79.1485 71.1128C79.13 71.1126 79.1148 71.0815 79.1148 71.0437C79.1148 71.0058 79.0844 70.9632 79.0474 70.9491C79.0103 70.9348 78.9799 70.8972 78.9799 70.8654C78.9799 70.8337 78.9496 70.796 78.9125 70.7818C78.8754 70.7676 78.845 70.7343 78.845 70.7077C78.845 70.6636 78.8246 70.6332 78.686 70.4709C78.6604 70.4409 78.5512 70.29 78.4435 70.1356C78.3357 69.9813 78.2291 69.8549 78.2064 69.8549C78.1838 69.8549 78.177 69.8361 78.1912 69.8131C78.2054 69.7901 78.179 69.7446 78.1325 69.712C78.0859 69.6794 78.0469 69.6361 78.0458 69.6155C78.0446 69.5951 77.9807 69.5091 77.9038 69.4247C77.8268 69.3402 77.7775 69.2711 77.7943 69.2711C77.811 69.2711 77.7781 69.2306 77.7211 69.1812C77.6641 69.1318 77.632 69.0914 77.6499 69.0914C77.6679 69.0914 77.6558 69.0636 77.6231 69.0296C77.5905 68.9955 77.5334 68.9215 77.4963 68.865C77.4592 68.8084 77.3951 68.7268 77.3539 68.6835C77.3127 68.6403 77.2903 68.5936 77.3041 68.5797C77.318 68.5659 77.2961 68.5418 77.2554 68.5263C77.2148 68.5107 77.1815 68.4692 77.1815 68.434C77.1815 68.3988 77.1512 68.3584 77.1141 68.3442C77.077 68.3299 77.0467 68.2988 77.0467 68.275C77.0467 68.2512 77.0214 68.2053 76.9905 68.173C76.9596 68.1408 76.9039 68.0696 76.8668 68.0148C76.8297 67.9601 76.7631 67.8727 76.7187 67.8205C76.6743 67.7683 76.5968 67.659 76.5464 67.5777C76.4961 67.4963 76.4351 67.4297 76.4109 67.4297C76.3868 67.4297 76.3786 67.4109 76.3929 67.3878C76.4071 67.3648 76.3781 67.3175 76.3284 67.2828C76.2786 67.248 76.2481 67.2094 76.2604 67.1971C76.2728 67.1847 76.2422 67.1378 76.1924 67.0928L76.1019 67.011L76.1028 73.508C76.1036 78.9456 76.0936 80.0288 76.0414 80.1509C75.9784 80.2985 75.6979 80.675 75.6979 80.6119C75.6979 80.5931 75.6656 80.6046 75.626 80.6373C75.5866 80.6701 75.5107 80.7079 75.4575 80.7214C75.4043 80.7349 74.4494 80.746 73.3355 80.746C71.4725 80.746 71.3006 80.7396 71.1887 80.6663C71.1218 80.6226 71.0671 80.598 71.0671 80.6118C71.0671 80.6536 70.8147 80.3494 70.7499 80.2295C70.7166 80.1677 70.6837 80.0869 70.6769 80.0498C70.67 80.0128 70.664 75.0119 70.6636 68.9368L70.6628 57.8911L70.7575 57.6959C70.8519 57.501 71.1428 57.2263 71.2752 57.2068C71.3136 57.2012 71.3559 57.1858 71.3691 57.1726C71.3824 57.1593 72.2704 57.1473 73.3426 57.1459C74.9594 57.1437 75.319 57.1545 75.45 57.2092ZM110.025 57.2418C110.225 57.3511 110.408 57.5473 110.502 57.7512C110.578 57.9166 110.584 58.0857 110.585 59.8747C110.586 61.5321 110.576 61.8432 110.516 61.9856C110.428 62.1976 110.254 62.3813 110.024 62.5044L109.844 62.6009L105.011 62.6054L100.178 62.6098L100.166 64.4134L100.155 66.2171H104.913C110.216 66.2171 109.974 66.2035 110.281 66.5189C110.59 66.8356 110.586 66.8033 110.585 68.9665C110.584 71.1328 110.587 71.1068 110.269 71.4167C109.971 71.7063 110.162 71.6963 104.913 71.6963H100.156V73.504V75.3117L105 75.314C109.836 75.3164 109.845 75.3165 110.024 75.411C110.123 75.463 110.259 75.563 110.325 75.6331C110.585 75.9062 110.586 75.9199 110.586 78.041V79.9873L110.472 80.2156C110.351 80.4594 110.122 80.6504 109.863 80.7245C109.62 80.7942 95.6086 80.7835 95.3727 80.7135C95.1073 80.6348 94.7906 80.3062 94.7235 80.0399C94.6473 79.7378 94.6473 58.1756 94.7235 57.8734C94.7911 57.6051 95.1147 57.2685 95.3701 57.2007C95.4907 57.1687 97.8417 57.1558 102.718 57.1605C109.302 57.1668 109.9 57.1735 110.025 57.2418Z" stroke="black" stroke-width="2" mask="url(#path-2-outside-1_7_258)"/>
</svg>
