<svg width="172" height="196" viewBox="0 0 172 196" fill="none" xmlns="http://www.w3.org/2000/svg">
<path d="M15.2212 175.231L0 0L171.116 0.278255L156.312 175.37L83.1256 195.126L15.2212 175.231Z" fill="#E44D26"/>
<path d="M86.1295 24.9631V35.8246H113.226H140.285L140.056 37.8063C139.789 40.1692 138.341 56.3662 138.341 57.0522C138.341 57.4333 132.853 57.5476 112.235 57.5476H86.1295V68.4091V79.2706H111.282H136.435L136.207 80.8713C136.092 81.7859 134.759 96.7253 133.196 114.066C131.672 131.444 130.338 145.697 130.262 145.774C130.223 145.85 120.277 148.632 108.234 151.948L86.1295 158.16C86.0914 164.295 86.1676 180.264 86.2057 180.264C86.7774 180.264 142.762 164.562 142.952 164.372C143.105 164.181 146.154 131.063 149.736 90.7038C153.318 50.3447 156.329 16.6169 156.482 15.7022L156.672 14.1016H121.42H86.1295V24.9631Z" fill="#F16529"/>
<path d="M86.1294 118.296V135.217L87.5776 134.836C88.3398 134.607 93.5991 133.197 99.2394 131.673C104.88 130.11 109.606 128.7 109.72 128.471C109.872 128.243 110.444 122.526 111.016 115.78C111.625 108.997 112.159 103.013 112.273 102.404L112.502 101.375H99.3157H86.1294V118.296Z" fill="#F16529"/>
<path d="M32.394 36.8525C32.394 38.2244 37.6914 98.1343 37.9582 99.7349L38.1487 100.993H75.2684H112.426V102.403C112.426 104.003 110.178 128.89 110.025 129.004C109.606 129.347 86.13 135.406 85.5583 135.368C85.1391 135.292 79.6512 133.882 73.3629 132.129L61.9297 129.004L61.2056 120.505L60.4815 112.045H49.6962H38.911L39.0634 113.074C39.1777 113.683 39.8637 121.153 40.6259 129.766C41.3881 138.341 42.036 145.429 42.1122 145.506C42.1503 145.544 52.0972 148.364 64.1783 151.718L86.13 157.815L108.082 151.718C120.163 148.364 130.071 145.582 130.11 145.506C130.148 145.429 131.443 131.252 132.968 113.95C134.492 96.648 135.826 81.8611 135.94 81.0607L136.169 79.6506H96.839C75.2303 79.6506 57.547 79.5363 57.547 79.3457C57.547 79.1933 57.1278 74.5438 56.5943 68.9797C56.0607 63.4155 55.6415 58.4993 55.6415 58.0038V57.1654H96.7628H137.922L138.113 55.5266C138.38 53.6592 139.866 37.2717 139.866 36.3951C139.866 35.8997 134.264 35.8235 86.13 35.8235H32.394V36.8525Z" fill="white"/>
</svg>
