<svg width="335" height="426" viewBox="0 0 335 426" fill="none" xmlns="http://www.w3.org/2000/svg">
<mask id="path-1-inside-1_60_30" fill="white">
<path d="M195 237.5C195 268.689 188.857 299.573 176.921 328.387C164.986 357.202 147.492 383.384 125.438 405.438C103.384 427.492 77.2021 444.986 48.3872 456.921C19.5724 468.857 -11.3111 475 -42.5001 475C-73.689 475 -104.573 468.857 -133.387 456.921C-162.202 444.986 -188.384 427.492 -210.438 405.438C-232.492 383.384 -249.986 357.202 -261.921 328.387C-273.857 299.572 -280 268.689 -280 237.5L-42.5 237.5H195Z"/>
</mask>
<path d="M195 237.5C195 268.689 188.857 299.573 176.921 328.387C164.986 357.202 147.492 383.384 125.438 405.438C103.384 427.492 77.2021 444.986 48.3872 456.921C19.5724 468.857 -11.3111 475 -42.5001 475C-73.689 475 -104.573 468.857 -133.387 456.921C-162.202 444.986 -188.384 427.492 -210.438 405.438C-232.492 383.384 -249.986 357.202 -261.921 328.387C-273.857 299.572 -280 268.689 -280 237.5L-42.5 237.5H195Z" fill="#FFF9C7" fill-opacity="0.35" stroke="black" stroke-width="2" mask="url(#path-1-inside-1_60_30)"/>
</svg>
