<svg width="172" height="196" viewBox="0 0 172 196" fill="none" xmlns="http://www.w3.org/2000/svg">
<path d="M15.4678 175.231L0.233398 0L171.499 0.278255L156.682 175.37L83.4316 195.126L15.4678 175.231Z" fill="#E8900C"/>
<path d="M85.543 17.634C85.543 21.3779 85.231 21.3779 71.1913 22.0019C63.2355 22.1579 73.5313 22.6259 94.2788 22.7819L131.718 23.0938L133.746 42.1254C134.682 52.7332 135.774 63.341 136.086 65.6809L136.554 70.0488L124.698 69.5808L112.842 69.1128L111.906 59.2851C111.438 53.9812 110.502 48.9893 109.878 48.5213C109.255 47.8973 103.483 47.1173 97.0868 46.8053L85.543 46.1813V62.717V79.2526H111.282H137.022L136.242 83.4645C135.93 85.9605 134.838 95.9443 133.902 105.772C132.966 115.6 131.718 129.016 131.094 135.411L130.002 147.111L119.862 149.919C114.246 151.479 104.263 154.287 97.7108 156.159L85.543 159.435V170.043C85.543 176.126 86.167 180.65 87.103 180.65C88.039 180.65 93.8108 179.246 100.051 177.374C106.135 175.659 118.302 172.227 126.882 169.887L142.482 165.675L143.574 155.691C146.07 130.731 155.585 21.0659 155.741 16.386C155.741 13.89 153.09 13.7341 120.642 13.7341H85.543V17.634Z" fill="#EFBE24"/>
<path d="M85.543 118.876V135.1L90.6909 133.852C109.566 128.86 108.474 129.64 109.566 120.904C110.034 116.38 110.502 110.452 110.502 107.644V102.652H98.0227H85.543V118.876Z" fill="#EFBE24"/>
<path d="M44.36 32.7666C42.8 48.8343 38.7441 95.3213 38.7441 99.0652V102.653H75.4033H112.219L111.283 113.105C109.723 130.888 110.347 129.797 97.2428 133.072C87.1031 135.724 84.4511 135.724 77.4313 134.164C72.9074 133.072 67.2915 131.824 64.9515 131.2C61.0516 130.42 60.5836 129.641 60.5836 124.493C60.5836 114.197 59.8037 113.573 48.5719 113.573H38.4321L39.5241 127.925C40.7721 143.056 42.176 147.892 45.608 147.892C46.6999 147.892 52.4718 149.296 58.3997 151.168C83.3591 158.5 84.6071 158.812 90.223 157.408C95.8389 155.848 101.143 154.444 118.614 149.296L129.066 146.176L129.846 139.624C130.314 136.036 131.406 125.741 132.186 116.693C133.122 107.645 134.214 95.9453 134.838 90.4854L135.774 80.8136H98.4908H61.3636L62.6116 67.8659C63.3916 60.846 64.3276 52.7342 64.6396 49.9263L65.4195 44.9344H79.1472C86.6351 44.9344 97.0868 45.4024 102.235 45.8704L111.751 46.9623L112.686 57.5701L113.778 68.3339H124.698C130.626 68.3339 135.462 67.8659 135.462 67.0859C135.462 63.342 132.186 30.8947 131.406 27.3068L130.47 23.0949H88.039H45.452L44.36 32.7666Z" fill="white"/>
</svg>
