<svg width="149" height="150" viewBox="0 0 149 150" fill="none" xmlns="http://www.w3.org/2000/svg">
<path d="M1.49442 149.057C1.49439 149.057 1.49465 149.056 1.49533 149.052C1.49481 149.056 1.49446 149.057 1.49442 149.057ZM70.8078 0.657884L70.8432 1.15663L70.8078 0.657884C58.2593 1.54801 47.0327 5.25137 36.3454 12.0254C32.2755 14.605 28.206 17.91 24.3745 21.7437C21.4607 24.6591 20.0701 26.2398 17.9119 29.0927C9.8385 39.7651 5.15556 51.4061 3.53734 64.8223C1.73346 79.7778 4.94334 95.6334 12.4546 108.882L13.3343 110.434L9.88977 120.687C5.91822 132.509 3.55267 139.562 2.19276 143.653C1.51297 145.698 1.08373 147.004 0.830669 147.797C0.704479 148.192 0.620498 148.464 0.570963 148.637C0.546961 148.721 0.527562 148.794 0.516081 148.85L0.516023 148.85C0.511959 148.87 0.501008 148.923 0.50007 148.981C0.499789 148.999 0.500117 149.028 0.505136 149.064C0.509301 149.094 0.52133 149.164 0.564897 149.242C0.61375 149.329 0.721282 149.453 0.907736 149.489C1.03691 149.514 1.14221 149.484 1.20718 149.455C1.20817 149.455 1.20923 149.454 1.21036 149.454C1.22377 149.449 1.24517 149.441 1.27573 149.431C1.33625 149.41 1.42392 149.38 1.53683 149.343C1.76217 149.268 2.08222 149.163 2.47386 149.036C3.25685 148.782 4.32275 148.44 5.48239 148.071L5.3308 147.594L5.4824 148.071C9.54226 146.779 13.8517 145.397 32.3243 139.461L40.6345 136.79L42.301 137.637C49.5781 141.337 56.7298 143.661 64.705 144.919C70.5424 145.839 78.3641 145.931 84.7119 145.158C85.7859 145.027 88.1826 144.612 90.0436 144.236C107.35 140.738 122.845 130.93 133.528 116.713C141.328 106.333 146.236 93.8977 147.597 81.0622C148.878 68.9827 147.284 57.2316 142.854 46.1124C139.964 38.8598 135.749 31.8928 130.599 25.8525C128.827 23.7742 124.975 19.917 122.873 18.116C115.568 11.8579 107.549 7.28763 98.5427 4.25019C89.8806 1.32893 79.7863 0.0210884 70.8078 0.657884ZM1.19548 149.46C1.19527 149.46 1.19732 149.459 1.20223 149.457C1.19814 149.459 1.19569 149.46 1.19548 149.46ZM27.433 108.529L27.5109 108.297L27.3758 108.093L26.1422 106.232C22.1958 100.278 19.4871 94.176 17.8561 87.5709C16.627 82.5932 16.1103 78.3116 16.1103 73.0994C16.1103 63.5091 18.1329 54.9545 22.4357 46.3478C26.6713 37.8754 33.1497 30.2964 40.9942 24.6398C50.1536 18.0351 61.3923 14.1052 72.4756 13.6283C75.0042 13.5195 75.8033 13.527 79.7196 13.7009C85.1749 13.9431 92.1799 15.5741 98.103 17.9895C102.683 19.8572 107.17 22.4201 111.354 25.56L111.654 25.1601L111.354 25.56C115.397 28.5941 119.938 33.1479 123.045 37.2829C138.092 57.3105 139.076 84.3137 125.526 105.391C119.519 114.733 110.72 122.416 100.613 127.141C92.4186 130.971 82.8466 132.962 74.0045 132.678C64.927 132.385 56.7116 130.299 48.7655 126.27C47.2417 125.497 45.3164 124.431 44.4927 123.906C44.0633 123.633 43.6441 123.384 43.3125 123.203C43.1477 123.113 42.9983 123.036 42.8773 122.981C42.8175 122.954 42.7566 122.928 42.6998 122.908L42.6972 122.907C42.662 122.895 42.5528 122.858 42.4305 122.865L42.4303 122.865C42.3501 122.869 42.2628 122.889 42.1743 122.911C42.0776 122.935 41.9445 122.972 41.7584 123.027C41.3851 123.138 40.7766 123.327 39.7732 123.645C37.7647 124.281 34.1594 125.439 27.6545 127.531C25.5875 128.195 23.6629 128.81 22.2274 129.266C21.5095 129.494 20.9144 129.681 20.4851 129.815C20.4235 129.835 20.3654 129.853 20.3108 129.87C20.3223 129.828 20.3347 129.784 20.3481 129.738C20.6216 128.786 21.2638 126.872 22.546 123.06C23.9737 118.816 25.6574 113.81 26.2875 111.936L25.8136 111.777L26.2875 111.936L27.433 108.529Z" fill="white" stroke="black"/>
<path d="M19.999 131.007L19.9992 131.007C20.1344 130.975 21.1109 130.669 22.5298 130.219C23.9669 129.763 25.8927 129.148 27.9606 128.483C34.4665 126.391 38.0693 125.234 40.0752 124.598C41.079 124.28 41.6792 124.094 42.0424 123.986C42.2245 123.932 42.3415 123.9 42.4176 123.881C42.4227 123.879 42.4275 123.878 42.4321 123.877C42.4413 123.881 42.4515 123.886 42.4627 123.891C42.5525 123.932 42.6782 123.996 42.8331 124.08C43.1411 124.249 43.5408 124.486 43.9553 124.75C44.8192 125.3 46.7777 126.383 48.3132 127.162C56.3923 131.258 64.7514 133.38 73.9723 133.677C82.975 133.967 92.7029 131.942 101.037 128.046C111.314 123.242 120.258 115.433 126.367 105.931C140.143 84.5029 139.143 57.0443 123.845 36.6822C120.683 32.4735 116.074 27.8523 111.954 24.7602C107.706 21.5718 103.144 18.9653 98.4806 17.0636C92.4687 14.6119 85.351 12.9499 79.764 12.7019C75.8323 12.5273 75.0014 12.5186 72.4326 12.6292C61.1506 13.1147 49.7242 17.1119 40.4094 23.8287C32.4365 29.5778 25.8507 37.2807 21.5412 45.9007C17.1693 54.6457 15.1103 63.3534 15.1103 73.0994C15.1103 78.3911 15.6365 82.7532 16.8852 87.8106L17.3706 87.6907L16.8852 87.8106C18.5451 94.5324 21.302 100.74 25.3086 106.784L26.4072 108.442L25.3397 111.617C24.7096 113.491 23.0259 118.497 21.5981 122.742C20.3213 126.537 19.6685 128.482 19.3869 129.462C19.3162 129.708 19.2656 129.904 19.2345 130.059C19.2059 130.201 19.1828 130.357 19.1993 130.499C19.2082 130.574 19.2322 130.684 19.3065 130.791C19.3899 130.911 19.5073 130.984 19.6282 131.016C19.7333 131.044 19.825 131.037 19.8744 131.031C19.9261 131.025 19.9736 131.014 19.999 131.007Z" fill="#06C755" stroke="black"/>
<path d="M46.0473 40.5378L45.6956 40.1824C47.284 38.6106 48.188 37.9989 49.6855 37.5678C50.2559 37.4033 51.0527 37.3781 52.2295 37.443C52.2295 37.443 52.2296 37.443 52.2296 37.443L52.2021 37.9422C56.1975 38.162 56.8154 38.2314 57.2368 38.5082L46.0473 40.5378ZM46.0473 40.5378L45.6956 40.1824C43.6313 42.2253 42.3444 43.9891 41.2343 46.3123C39.7277 49.4651 39.1401 52.1426 39.141 55.8204C39.1417 58.2236 39.3498 59.6623 40.0848 62.4008L40.5677 62.2711L40.0848 62.4008C40.8389 65.2099 42.6163 69.2244 44.4193 72.2062C45.9098 74.6711 49.5928 80.1898 51.0643 82.1617C56.1026 88.9144 62.5497 95.2604 68.4151 99.2278C72.5496 102.024 75.5973 103.542 82.7028 106.357C88.3785 108.606 92.0832 109.656 94.6199 109.677C95.4543 109.684 96.8135 109.542 98.1129 109.345C99.4086 109.15 100.708 108.891 101.415 108.649C103.606 107.9 105.807 106.709 107.619 105.373C109.42 104.047 110.892 102.538 111.561 101.129C112.715 98.6993 113.456 95.3965 113.358 93.0457L113.357 93.0014C113.325 92.2304 113.3 91.6269 112.768 91.0632C112.523 90.8024 112.185 90.5648 111.747 90.3005C111.305 90.0341 110.724 89.7189 109.972 89.3119C105.62 86.9569 102.541 85.3146 100.392 84.2091C98.2564 83.1108 97.0068 82.525 96.3355 82.3044L96.1794 82.7795L96.3355 82.3044C95.8256 82.1369 95.2654 82.0656 94.7689 82.0839C94.2992 82.1012 93.7799 82.2028 93.4412 82.4841L93.4411 82.4842C93.3728 82.5409 93.2616 82.6612 93.1507 82.7838C93.0262 82.9215 92.8646 83.1048 92.6776 83.32C92.3034 83.7507 91.8228 84.3149 91.3256 84.909L91.7091 85.2299L91.3256 84.909C90.0551 86.4276 88.7325 87.9294 87.6645 89.0834C87.1301 89.6608 86.6624 90.1479 86.2984 90.5054C86.1161 90.6844 85.9636 90.8272 85.8439 90.9313C85.784 90.9834 85.7357 91.0229 85.6982 91.0512C85.6759 91.0681 85.6613 91.0781 85.6534 91.0833C85.6468 91.0876 85.6448 91.0886 85.6468 91.0876C85.4457 91.1917 85.2775 91.2495 85.1045 91.2724C84.9309 91.2954 84.7251 91.2867 84.4464 91.2236C83.8677 91.0925 83.0539 90.7475 81.6907 90.0843C76.223 87.424 72.5138 84.8526 68.536 80.9706C64.9467 77.468 61.3765 72.6999 59.2127 68.5241L46.0473 40.5378Z" fill="white" stroke="black"/>
</svg>
