<svg width="147" height="148" viewBox="0 0 147 148" fill="none" xmlns="http://www.w3.org/2000/svg">
<path fill-rule="evenodd" clip-rule="evenodd" d="M35.613 11.4477C46.2309 4.71772 57.3777 1.04086 69.8432 0.156631C78.7545 -0.475403 88.7825 0.82353 97.3829 3.72397C106.328 6.74069 114.29 11.2787 121.547 17.4957C123.63 19.28 127.464 23.1187 129.219 25.1769C134.334 31.1764 138.52 38.0965 141.389 45.2975C145.789 56.3401 147.373 68.0094 146.1 80.0095C144.748 92.7546 139.874 105.105 132.128 115.413C121.518 129.533 106.13 139.273 88.9445 142.746C87.0881 143.121 84.7062 143.533 83.6514 143.661C77.3458 144.43 69.5708 144.337 63.7829 143.425C55.86 142.176 48.7585 139.868 41.5276 136.192L39.6776 135.251L31.1714 137.985C12.6984 143.921 8.3898 145.303 4.3308 146.594C2.01025 147.333 0.0634409 147.964 0.00467922 147.998C-0.0973482 148.056 1.42048 143.491 9.36374 119.846L12.8793 109.381L11.8896 107.636C4.43037 94.4787 1.24281 78.7303 3.03374 63.8822C4.64148 50.5528 9.29117 38.9955 17.3107 28.3943C19.4531 25.5622 20.8281 23.9988 23.7281 21.0971C27.5369 17.2862 31.578 14.0053 35.613 11.4477ZM97.2918 16.5265C91.3243 14.093 84.2629 12.4465 78.7418 12.2014C74.8178 12.0272 74.0028 12.0191 71.4541 12.1287C60.2715 12.6099 48.9389 16.5735 39.7018 23.2342C31.7931 28.9371 25.261 36.5781 20.9884 45.1243C16.6511 53.8001 14.6103 62.4312 14.6103 72.0994C14.6103 77.3514 15.1317 81.6732 16.3706 86.6907C18.0161 93.3542 20.7489 99.5093 24.7254 105.508L25.9591 107.369L24.8136 110.777C24.1835 112.651 22.4998 117.657 21.072 121.901C18.5131 129.508 18.4819 129.617 18.883 129.521C19.1067 129.468 22.6727 128.336 26.8075 127.007C39.8184 122.823 41.2238 122.378 41.4596 122.364C41.5862 122.356 42.3801 122.79 43.224 123.328C44.0678 123.866 46.0097 124.94 47.5394 125.716C55.552 129.779 63.8392 131.883 72.9884 132.177C81.9108 132.465 91.5608 130.457 99.8251 126.593C110.017 121.829 118.889 114.083 124.946 104.661C138.609 83.4083 137.618 56.1774 122.445 35.9826C119.311 31.8107 114.735 27.2232 110.654 24.1601C106.438 20.9959 101.913 18.4113 97.2918 16.5265Z" fill="white"/>
<path fill-rule="evenodd" clip-rule="evenodd" d="M78.7418 12.2014C84.2629 12.4465 91.3243 14.093 97.2918 16.5265C101.913 18.4113 106.438 20.9959 110.654 24.1601C114.735 27.2232 119.311 31.8107 122.445 35.9826C137.618 56.1774 138.609 83.4083 124.946 104.661C118.889 114.083 110.017 121.829 99.8251 126.593C91.5608 130.457 81.9108 132.465 72.9884 132.177C63.8392 131.883 55.552 129.779 47.5394 125.716C46.0097 124.94 44.0678 123.866 43.224 123.328C42.3801 122.79 41.5862 122.356 41.4596 122.364C41.2238 122.378 39.8184 122.823 26.8075 127.007C22.6727 128.336 19.1067 129.468 18.883 129.521C18.4819 129.617 18.5131 129.508 21.072 121.901C22.4998 117.657 24.1835 112.651 24.8136 110.777L25.9591 107.369L24.7254 105.508C20.7489 99.5093 18.0161 93.3542 16.3706 86.6907C15.1317 81.6732 14.6103 77.3514 14.6103 72.0994C14.6103 62.4312 16.6511 53.8001 20.9884 45.1243C25.261 36.5781 31.7931 28.9371 39.7018 23.2342C48.9389 16.5735 60.2715 12.6099 71.4541 12.1287C74.0028 12.0191 74.8178 12.0272 78.7418 12.2014ZM45.0473 39.5378C46.6045 37.9968 47.4381 37.4472 48.824 37.0482C49.3051 36.9095 50.0259 36.8774 51.2021 36.9422C55.1975 37.162 55.8154 37.2314 56.2368 37.5082C57.2221 38.1551 57.6513 39.0716 60.0278 45.6047C61.8508 50.6164 62.6245 52.6944 63.1089 53.8795C63.8679 55.7369 63.8587 56.1868 63.0268 57.8433C62.2945 59.3015 61.0335 60.879 58.6298 63.3446C56.8398 65.1805 56.729 65.7478 57.7688 67.7541C59.9586 71.9802 63.5618 76.7909 67.1868 80.3285C71.2062 84.2511 74.9605 86.8523 80.472 89.5339C83.1833 90.8529 83.9296 91.0219 84.8767 90.5316C85.3969 90.2624 88.1584 87.2785 90.7091 84.2299C91.7002 83.0454 92.6234 81.9828 92.7607 81.8687C93.176 81.5237 94.277 81.483 95.1794 81.7795C96.4324 82.1911 100.031 84.0419 108.734 88.7516C111.757 90.3876 111.791 90.4227 111.859 92.0665C111.953 94.324 111.234 97.5464 110.109 99.9141C108.875 102.512 104.531 105.713 100.253 107.176C98.9325 107.628 95.2104 108.19 93.624 108.177C91.1916 108.157 87.5666 107.143 81.887 104.892C74.7991 102.084 71.7881 100.582 67.6952 97.8136C61.8843 93.883 55.4762 87.579 50.465 80.8627C49.0047 78.9057 45.3306 73.4008 43.8472 70.9475C42.0636 67.9979 40.3074 64.0266 39.5677 61.2711C38.842 58.5671 38.6416 57.1724 38.641 54.8203C38.6401 51.2128 39.2128 48.6096 40.6854 45.5279C41.7675 43.2633 43.0184 41.5457 45.0473 39.5378Z" fill="#06C755"/>
<path fill-rule="evenodd" clip-rule="evenodd" d="M45.0473 39.5378C46.6045 37.9968 47.4381 37.4472 48.824 37.0482C49.3051 36.9095 50.0259 36.8774 51.2021 36.9422C55.1975 37.162 55.8154 37.2314 56.2368 37.5082C57.2221 38.1551 57.6513 39.0716 60.0278 45.6047C61.8508 50.6164 62.6245 52.6944 63.1089 53.8795C63.8679 55.7369 63.8587 56.1868 63.0268 57.8433C62.2945 59.3015 61.0335 60.879 58.6298 63.3446C56.8398 65.1805 56.729 65.7478 57.7688 67.7541C59.9586 71.9802 63.5618 76.7909 67.1868 80.3285C71.2062 84.2511 74.9605 86.8523 80.472 89.5339C83.1833 90.8529 83.9296 91.0219 84.8767 90.5316C85.3969 90.2624 88.1584 87.2785 90.7091 84.2299C91.7002 83.0454 92.6234 81.9828 92.7607 81.8687C93.176 81.5237 94.277 81.483 95.1794 81.7795C96.4324 82.1911 100.031 84.0419 108.734 88.7516C111.757 90.3876 111.791 90.4227 111.859 92.0665C111.953 94.324 111.234 97.5464 110.109 99.9141C108.875 102.512 104.531 105.713 100.253 107.176C98.9325 107.628 95.2104 108.19 93.624 108.177C91.1916 108.157 87.5666 107.143 81.887 104.892C74.7991 102.084 71.7881 100.582 67.6952 97.8136C61.8843 93.883 55.4762 87.579 50.465 80.8627C49.0047 78.9057 45.3306 73.4008 43.8472 70.9475C42.0636 67.9979 40.3074 64.0266 39.5677 61.2711C38.842 58.5671 38.6416 57.1724 38.641 54.8203C38.6401 51.2128 39.2128 48.6096 40.6854 45.5279C41.7675 43.2633 43.0184 41.5457 45.0473 39.5378Z" fill="#06C755"/>
<path d="M48.824 37.0482C47.4381 37.4472 46.6045 37.9968 45.0473 39.5378C43.0184 41.5457 41.7675 43.2633 40.6854 45.5279C39.2128 48.6096 38.6401 51.2128 38.641 54.8203C38.6416 57.1724 38.842 58.5671 39.5677 61.2711C40.3074 64.0266 42.0636 67.9979 43.8472 70.9475C45.3306 73.4008 49.0047 78.9057 50.465 80.8627C55.4762 87.579 61.8843 93.883 67.6952 97.8136C71.7881 100.582 74.7991 102.084 81.887 104.892C87.5666 107.143 91.1916 108.157 93.624 108.177C95.2104 108.19 98.9325 107.628 100.253 107.176C104.531 105.713 108.875 102.512 110.109 99.9141C111.234 97.5464 111.953 94.324 111.859 92.0665C111.791 90.4227 111.757 90.3876 108.734 88.7516C100.031 84.0419 96.4324 82.1911 95.1794 81.7795C94.277 81.483 93.176 81.5237 92.7607 81.8687C92.6234 81.9828 91.7002 83.0454 90.7091 84.2299C88.1584 87.2785 85.3969 90.2624 84.8767 90.5316C83.9296 91.0219 83.1833 90.8529 80.472 89.5339C74.9605 86.8523 71.2062 84.2511 67.1868 80.3285C63.5618 76.7909 59.9586 71.9802 57.7688 67.7541C56.729 65.7478 56.8398 65.1805 58.6298 63.3446C61.0335 60.879 62.2945 59.3015 63.0268 57.8433C63.8587 56.1868 63.8679 55.7369 63.1089 53.8795C62.6245 52.6944 61.8508 50.6164 60.0278 45.6047C57.6513 39.0716 57.2221 38.1551 56.2368 37.5082C55.8154 37.2314 55.1975 37.162 51.2021 36.9422C50.0259 36.8774 49.3051 36.9095 48.824 37.0482Z" fill="white"/>
</svg>
