<svg width="172" height="196" viewBox="0 0 172 196" fill="none" xmlns="http://www.w3.org/2000/svg">
<path d="M15.3379 175.231L0.116699 0L171.233 0.278255L156.429 175.37L83.2423 195.126L15.3379 175.231Z" fill="#264DE4"/>
<path d="M115.144 172.224C99.7775 176.468 86.0562 180.272 86.0562 180.272V14.3909H121.339C154.632 14.3909 156.462 14.4153 156.462 14.8055C156.486 15.5616 143.218 164.272 143.12 164.37C143.071 164.443 130.486 167.955 115.144 172.224Z" fill="#2965F1"/>
<path d="M86.2163 68.4166V79.2705H100.363H114.51V78.5876C114.534 78.2217 114.949 73.3436 115.436 67.7337L116.363 57.5627H101.29H86.2163V68.4166Z" fill="#2965F1"/>
<path d="M86.2163 118.32C86.2163 127.71 86.2895 135.344 86.4114 135.296C86.509 135.222 91.8018 133.783 98.1678 132.076C104.534 130.369 109.827 128.905 109.924 128.808C109.997 128.735 110.583 122.954 111.192 115.978C111.802 109.002 112.363 102.832 112.461 102.246L112.583 101.222H99.4117H86.2163V118.32Z" fill="#2965F1"/>
<path d="M32.41 37.244C32.4832 37.9026 32.8734 42.1466 33.2881 46.7076C33.7027 51.2687 34.093 55.5127 34.1662 56.1469L34.3125 57.3176H75.3865H116.461L116.436 58.342C116.436 58.9274 116.022 63.8788 115.534 69.3911L114.631 79.3913L75.4109 79.4645C53.8495 79.4888 36.215 79.5864 36.215 79.7084C36.215 80.2206 37.9467 99.5137 38.0687 100.172L38.1906 100.977H75.5085H112.851L112.704 101.636C112.631 102.026 112.07 108.246 111.436 115.49C110.753 123.246 110.192 128.783 110.021 128.929C109.68 129.27 86.777 135.441 85.9721 135.392C85.6307 135.392 80.1427 133.953 73.7768 132.222L62.1911 129.1L62.0204 128.27C61.9228 127.807 61.557 123.953 61.1911 119.685L60.5082 111.953H49.825C40.8248 111.953 39.1419 112.002 39.1419 112.294C39.1419 112.88 42.0932 145.466 42.1419 145.515C42.1663 145.563 52.0934 148.32 64.1912 151.686L86.1673 157.783L108.046 151.71C120.095 148.393 130.022 145.563 130.119 145.441C130.217 145.344 131.29 133.88 132.534 120.002C133.754 106.124 135.9 81.9035 137.315 66.2203C138.729 50.5126 139.876 37.3172 139.876 36.8782V36.0977H86.0697H32.2637L32.41 37.244Z" fill="white"/>
</svg>
