<svg width="149" height="148" viewBox="0 0 149 148" fill="none" xmlns="http://www.w3.org/2000/svg">
<rect x="0.914062" width="147.85" height="147.85" rx="40" fill="#06C755"/>
<path fill-rule="evenodd" clip-rule="evenodd" d="M72.967 26.6202C72.8186 26.6287 72.3128 26.6572 71.843 26.6835C55.8361 27.5793 41.2204 34.8289 32.824 46.0373C29.1029 51.0047 26.792 56.4616 25.965 62.2338C25.7079 64.0284 25.672 64.5951 25.6709 66.8788C25.6703 68.2424 25.6901 69.1854 25.7281 69.596C25.918 71.6459 26.1824 73.235 26.6363 75.0527C29.6699 87.2019 39.4941 97.5558 53.2074 103.056C57.3344 104.712 61.8622 105.923 66.3804 106.58C68.6573 106.912 70.3259 107.573 71.1755 108.48C71.7799 109.125 71.9926 110.032 71.9416 111.745C71.9081 112.872 71.8645 113.206 71.3685 116.147C71.0567 117.996 70.9503 118.732 70.9339 119.156C70.8922 120.232 71.1537 120.816 71.8166 121.127C72.054 121.238 72.1049 121.244 72.7422 121.241C73.352 121.238 73.4674 121.224 73.9468 121.095C75.2558 120.744 77.0025 119.903 79.9806 118.19C85.97 114.746 93.7876 109.51 99.9047 104.844C107.134 99.3298 112.066 94.7816 116.237 89.7837C121.141 83.9069 123.999 77.8622 124.89 71.4822C125.13 69.7687 125.163 69.2114 125.163 66.9237C125.163 64.5902 125.129 64.0435 124.869 62.2338C123.701 54.0753 119.5 46.4452 112.778 40.2734C105.788 33.8546 96.5841 29.4232 86.3725 27.5597C84.0709 27.1397 81.9676 26.885 79.1039 26.6795C78.4556 26.6329 73.5696 26.5858 72.967 26.6202ZM46.7339 56.1953C46.9625 56.2638 47.2087 56.4704 47.3191 56.6864C47.4063 56.8573 47.4077 56.9913 47.4077 65.5746V74.2892L52.1846 74.2925C54.8119 74.2944 57.0096 74.3048 57.0683 74.3156C57.3989 74.3766 57.7535 74.6934 57.8367 75.0022C57.8678 75.1175 57.884 75.8645 57.8822 77.0986C57.8796 78.9128 57.8747 79.0251 57.791 79.1888C57.6946 79.3778 57.4099 79.6849 57.3691 79.6442C57.3551 79.6302 57.3437 79.638 57.3437 79.6616C57.3437 79.6851 57.2981 79.7133 57.2425 79.7241C57.1103 79.7499 42.7405 79.7499 42.6083 79.7241C42.5527 79.7133 42.5071 79.6931 42.5071 79.6793C42.5071 79.6654 42.4362 79.616 42.3496 79.5693C42.243 79.512 42.1556 79.4103 42.0794 79.2548L41.9669 79.025L41.9674 67.9581L41.968 56.8911L42.0626 56.6959C42.157 56.501 42.4479 56.2263 42.5803 56.2068C42.6188 56.2012 42.6611 56.1858 42.6743 56.1726C42.7259 56.121 46.5574 56.1425 46.7339 56.1953ZM65.5612 56.1977C65.8279 56.2648 66.1567 56.5811 66.2356 56.8463C66.3105 57.0984 66.3157 78.7991 66.2409 79.0723C66.2091 79.1883 66.1151 79.3261 65.9759 79.4611C65.6562 79.7709 65.6001 79.7774 63.4131 79.7604L61.5473 79.746L61.3328 79.62C61.2148 79.5507 61.063 79.4107 60.9956 79.3089L60.873 79.1238L60.8614 68.0012L60.8499 56.8787L60.9548 56.6802C61.0714 56.4597 61.3436 56.2446 61.5753 56.1899C61.8286 56.1302 65.32 56.137 65.5612 56.1977ZM74.45 56.2092C74.5369 56.2454 74.608 56.2658 74.608 56.2546C74.608 56.1617 75.0131 56.653 75.6841 57.5596C76.1229 58.1525 77.4194 59.9007 78.5652 61.4445C79.7111 62.9883 80.9854 64.7062 81.397 65.262C81.8087 65.8178 82.6784 66.99 83.3297 67.8669C83.981 68.7438 84.5864 69.5616 84.675 69.6843L84.8362 69.9074L84.8587 63.3743C84.8802 57.1082 84.8846 56.8341 84.9652 56.6721C85.0367 56.5284 85.1654 56.3951 85.3775 56.2453C85.4799 56.173 85.6263 56.167 87.5637 56.1564C89.5686 56.1454 89.5721 56.1456 89.7613 56.2462C90.0364 56.3924 90.2407 56.6514 90.2974 56.9254C90.3304 57.0847 90.3414 60.5204 90.3331 68.0914L90.3212 79.0274L90.2227 79.2113C90.0934 79.4527 89.8485 79.6632 89.628 79.7225C89.515 79.7529 88.7471 79.7692 87.5099 79.7675C85.8233 79.7651 85.555 79.7555 85.4612 79.6941C85.4018 79.6552 85.3526 79.6408 85.3519 79.6622C85.3511 79.6836 85.3299 79.6657 85.3047 79.6225C85.2794 79.5792 85.2295 79.5439 85.1936 79.5439C85.1578 79.5439 85.1284 79.5287 85.1284 79.5102C85.1283 79.4917 85.0767 79.4166 85.0136 79.3433C84.9506 79.27 84.8579 79.1437 84.8077 79.0626C84.7575 78.9815 84.6967 78.9151 84.6725 78.9151C84.6483 78.9151 84.6402 78.8963 84.6545 78.8733C84.6687 78.8503 84.6345 78.7993 84.5784 78.7601C84.5224 78.7209 84.4866 78.6811 84.499 78.6716C84.5114 78.6622 84.4553 78.5817 84.3743 78.4929C84.2933 78.404 84.2407 78.3313 84.2575 78.3313C84.2742 78.3313 84.2413 78.2908 84.1843 78.2414C84.1273 78.192 84.0969 78.1516 84.1168 78.1516C84.1368 78.1516 84.1064 78.1112 84.0494 78.0618C83.9924 78.0124 83.964 77.9717 83.9863 77.9713C84.0087 77.9709 84.0065 77.9558 83.9816 77.9376C83.9566 77.9195 83.8858 77.829 83.8242 77.7365C83.7626 77.644 83.697 77.5683 83.6785 77.5681C83.66 77.5679 83.6448 77.5368 83.6448 77.499C83.6448 77.4611 83.6144 77.4186 83.5773 77.4044C83.5402 77.3901 83.5099 77.3503 83.5099 77.3159C83.5099 77.2815 83.489 77.2534 83.4635 77.2534C83.438 77.2534 83.4037 77.218 83.3871 77.1748C83.359 77.1012 83.3322 77.0623 83.216 76.9262C83.1904 76.8962 83.0812 76.7453 82.9734 76.5909C82.8657 76.4366 82.7568 76.3102 82.7316 76.3102C82.7063 76.3102 82.6986 76.2973 82.7145 76.2814C82.7411 76.2549 82.423 75.836 82.3191 75.7607C82.294 75.7426 82.2918 75.7275 82.3141 75.7271C82.3365 75.7267 82.308 75.686 82.251 75.6366C82.194 75.5872 82.1656 75.5464 82.188 75.5461C82.2103 75.5457 82.2083 75.5305 82.1835 75.5124C82.1587 75.4942 82.0801 75.3935 82.0088 75.2885C81.9374 75.1835 81.8605 75.0976 81.8376 75.0976C81.8148 75.0976 81.8087 75.0773 81.8241 75.0524C81.8395 75.0275 81.8205 74.995 81.7818 74.9802C81.7432 74.9654 81.7115 74.9245 81.7115 74.8893C81.7115 74.8541 81.6812 74.8137 81.6441 74.7995C81.607 74.7853 81.5766 74.7547 81.5766 74.7316C81.5766 74.7085 81.5561 74.6652 81.5308 74.6354C81.3724 74.4477 81.2957 74.3468 81.1456 74.1293C81.053 73.9949 80.9592 73.885 80.9371 73.885C80.915 73.885 80.9086 73.8662 80.9229 73.8432C80.9371 73.8202 80.9106 73.7747 80.8641 73.7421C80.8176 73.7095 80.7818 73.6698 80.7846 73.6536C80.7875 73.6375 80.7236 73.5516 80.6427 73.4628C80.5617 73.3739 80.5091 73.3012 80.5259 73.3012C80.5426 73.3012 80.5097 73.2607 80.4527 73.2113C80.3957 73.1619 80.363 73.1215 80.3801 73.1215C80.3972 73.1215 80.3852 73.0905 80.3533 73.0526C80.2253 72.9005 80.201 72.8681 80.093 72.7064C80.0311 72.6139 79.9654 72.5382 79.9469 72.538C79.9284 72.5378 79.9132 72.5151 79.9132 72.4875C79.9132 72.4598 79.8575 72.3721 79.7895 72.2924C79.7215 72.2128 79.6355 72.1016 79.5984 72.0452C79.5614 71.9889 79.51 71.92 79.4844 71.8921C79.4588 71.8643 79.3496 71.7152 79.2418 71.5608C79.1341 71.4065 79.0274 71.2801 79.0048 71.2801C78.9822 71.2801 78.9754 71.2613 78.9896 71.2383C79.0038 71.2153 78.9702 71.1648 78.9148 71.126C78.8594 71.0873 78.8326 71.0556 78.8551 71.0556C78.8776 71.0556 78.8568 71.0176 78.8089 70.9713C78.6764 70.8431 78.5618 70.6963 78.5942 70.6963C78.6101 70.6963 78.5764 70.6559 78.5194 70.6065C78.4624 70.5571 78.434 70.5163 78.4564 70.516C78.4787 70.5156 78.4765 70.5004 78.4516 70.4823C78.4266 70.4641 78.3558 70.3736 78.2942 70.2812C78.2326 70.1887 78.167 70.1129 78.1485 70.1128C78.13 70.1126 78.1148 70.0815 78.1148 70.0437C78.1148 70.0058 78.0844 69.9632 78.0474 69.949C78.0103 69.9348 77.9799 69.8972 77.9799 69.8654C77.9799 69.8337 77.9496 69.796 77.9125 69.7818C77.8754 69.7676 77.845 69.7343 77.845 69.7077C77.845 69.6636 77.8246 69.6332 77.686 69.4709C77.6604 69.4409 77.5512 69.29 77.4435 69.1356C77.3357 68.9813 77.2291 68.8549 77.2064 68.8549C77.1838 68.8549 77.177 68.8361 77.1912 68.8131C77.2054 68.7901 77.179 68.7446 77.1325 68.712C77.0859 68.6794 77.0469 68.6361 77.0458 68.6155C77.0446 68.5951 76.9807 68.5091 76.9038 68.4247C76.8268 68.3402 76.7775 68.2711 76.7943 68.2711C76.811 68.2711 76.7781 68.2306 76.7211 68.1812C76.6641 68.1318 76.632 68.0914 76.6499 68.0914C76.6679 68.0914 76.6558 68.0636 76.6231 68.0296C76.5905 67.9955 76.5334 67.9215 76.4963 67.865C76.4592 67.8084 76.3951 67.7268 76.3539 67.6835C76.3127 67.6403 76.2903 67.5936 76.3041 67.5797C76.318 67.5659 76.2961 67.5418 76.2554 67.5263C76.2148 67.5107 76.1815 67.4692 76.1815 67.434C76.1815 67.3988 76.1512 67.3584 76.1141 67.3442C76.077 67.3299 76.0467 67.2988 76.0467 67.275C76.0467 67.2512 76.0214 67.2053 75.9905 67.173C75.9596 67.1408 75.9039 67.0696 75.8668 67.0148C75.8297 66.9601 75.7631 66.8727 75.7187 66.8205C75.6743 66.7683 75.5968 66.6591 75.5464 66.5777C75.4961 66.4963 75.4351 66.4297 75.4109 66.4297C75.3868 66.4297 75.3786 66.4109 75.3929 66.3878C75.4071 66.3648 75.3781 66.3175 75.3284 66.2828C75.2786 66.248 75.2481 66.2094 75.2604 66.1971C75.2728 66.1847 75.2422 66.1378 75.1924 66.0929L75.1019 66.011L75.1028 72.508C75.1036 77.9456 75.0936 79.0288 75.0414 79.1509C74.9784 79.2985 74.6979 79.675 74.6979 79.6119C74.6979 79.5931 74.6656 79.6046 74.6261 79.6373C74.5866 79.6701 74.5107 79.7079 74.4575 79.7214C74.4043 79.7349 73.4494 79.746 72.3355 79.746C70.4725 79.746 70.3006 79.7396 70.1887 79.6663C70.1218 79.6226 70.0671 79.598 70.0671 79.6118C70.0671 79.6536 69.8147 79.3494 69.7499 79.2295C69.7166 79.1677 69.6837 79.0869 69.6769 79.0498C69.67 79.0128 69.664 74.0119 69.6636 67.9368L69.6628 56.8911L69.7575 56.6959C69.8519 56.501 70.1428 56.2263 70.2752 56.2068C70.3136 56.2012 70.3559 56.1858 70.3691 56.1726C70.3824 56.1594 71.2704 56.1473 72.3426 56.1459C73.9594 56.1437 74.319 56.1545 74.45 56.2092ZM109.025 56.2418C109.225 56.3511 109.408 56.5473 109.502 56.7512C109.578 56.9166 109.584 57.0857 109.585 58.8747C109.586 60.5321 109.576 60.8432 109.516 60.9856C109.428 61.1976 109.254 61.3813 109.024 61.5044L108.844 61.6009L104.011 61.6054L99.1782 61.6098L99.1664 63.4134L99.1547 65.2171H103.913C109.216 65.2171 108.974 65.2035 109.281 65.5189C109.59 65.8356 109.586 65.8033 109.585 67.9665C109.584 70.1328 109.587 70.1068 109.269 70.4167C108.971 70.7063 109.162 70.6963 103.913 70.6963H99.1557V72.504V74.3117L104 74.314C108.836 74.3164 108.845 74.3165 109.024 74.411C109.123 74.463 109.259 74.563 109.325 74.6331C109.585 74.9062 109.586 74.9199 109.586 77.041V78.9873L109.472 79.2156C109.351 79.4594 109.122 79.6504 108.863 79.7245C108.62 79.7942 94.6086 79.7835 94.3727 79.7135C94.1073 79.6348 93.7906 79.3062 93.7235 79.0399C93.6473 78.7378 93.6473 57.1756 93.7235 56.8734C93.7911 56.6051 94.1147 56.2685 94.3701 56.2007C94.4907 56.1687 96.8417 56.1558 101.718 56.1605C108.302 56.1668 108.9 56.1735 109.025 56.2418Z" fill="white"/>
</svg>
