<svg width="236" height="24" viewBox="0 0 236 24" fill="none" xmlns="http://www.w3.org/2000/svg">
<path d="M0.656 23V0.599998H10.352C12.3573 0.599998 14.0853 0.930665 15.536 1.592C16.9867 2.232 18.1067 3.16 18.896 4.376C19.6853 5.592 20.08 7.04267 20.08 8.728C20.08 10.392 19.6853 11.832 18.896 13.048C18.1067 14.264 16.9867 15.2027 15.536 15.864C14.0853 16.504 12.3573 16.824 10.352 16.824H3.536L5.84 14.488V23H0.656ZM5.84 15.064L3.536 12.6H10.064C11.664 12.6 12.8587 12.2587 13.648 11.576C14.4373 10.8933 14.832 9.944 14.832 8.728C14.832 7.49067 14.4373 6.53067 13.648 5.848C12.8587 5.16533 11.664 4.824 10.064 4.824H3.536L5.84 2.36V15.064ZM26.432 23L36.416 0.599998H41.536L51.552 23H46.112L37.92 3.224H39.968L31.744 23H26.432ZM31.424 18.2L32.8 14.264H44.32L45.728 18.2H31.424ZM60.596 23V0.599998H70.772C73.204 0.599998 75.348 1.06933 77.204 2.008C79.06 2.92533 80.5107 4.216 81.556 5.88C82.6013 7.544 83.124 9.51733 83.124 11.8C83.124 14.0613 82.6013 16.0347 81.556 17.72C80.5107 19.384 79.06 20.6853 77.204 21.624C75.348 22.5413 73.204 23 70.772 23H60.596ZM65.78 18.744H70.516C72.0093 18.744 73.3 18.4667 74.388 17.912C75.4973 17.336 76.3507 16.5253 76.948 15.48C77.5667 14.4347 77.876 13.208 77.876 11.8C77.876 10.3707 77.5667 9.144 76.948 8.12C76.3507 7.07467 75.4973 6.27467 74.388 5.72C73.3 5.144 72.0093 4.856 70.516 4.856H65.78V18.744ZM92.0947 23V19.64L105.951 2.936L106.591 4.824H92.3507V0.599998H111.199V3.96L97.3747 20.664L96.7347 18.776H111.679V23H92.0947ZM132.225 23.384C130.497 23.384 128.886 23.1067 127.393 22.552C125.921 21.976 124.641 21.1653 123.553 20.12C122.465 19.0747 121.611 17.848 120.993 16.44C120.395 15.032 120.097 13.4853 120.097 11.8C120.097 10.1147 120.395 8.568 120.993 7.16C121.611 5.752 122.465 4.52533 123.553 3.48C124.662 2.43467 125.953 1.63467 127.425 1.08C128.897 0.503999 130.507 0.216 132.257 0.216C134.198 0.216 135.947 0.557333 137.505 1.24C139.083 1.90133 140.406 2.88267 141.473 4.184L138.145 7.256C137.377 6.38133 136.523 5.73067 135.585 5.304C134.646 4.856 133.622 4.632 132.513 4.632C131.467 4.632 130.507 4.80267 129.633 5.144C128.758 5.48533 128.001 5.976 127.361 6.616C126.721 7.256 126.219 8.01333 125.857 8.888C125.515 9.76267 125.345 10.7333 125.345 11.8C125.345 12.8667 125.515 13.8373 125.857 14.712C126.219 15.5867 126.721 16.344 127.361 16.984C128.001 17.624 128.758 18.1147 129.633 18.456C130.507 18.7973 131.467 18.968 132.513 18.968C133.622 18.968 134.646 18.7547 135.585 18.328C136.523 17.88 137.377 17.208 138.145 16.312L141.473 19.384C140.406 20.6853 139.083 21.6773 137.505 22.36C135.947 23.0427 134.187 23.384 132.225 23.384ZM162.105 23.384C160.334 23.384 158.691 23.096 157.177 22.52C155.683 21.944 154.382 21.1333 153.273 20.088C152.185 19.0427 151.331 17.816 150.713 16.408C150.115 15 149.817 13.464 149.817 11.8C149.817 10.136 150.115 8.6 150.713 7.192C151.331 5.784 152.195 4.55733 153.305 3.512C154.414 2.46667 155.715 1.656 157.209 1.08C158.702 0.503999 160.323 0.216 162.073 0.216C163.843 0.216 165.465 0.503999 166.937 1.08C168.43 1.656 169.721 2.46667 170.809 3.512C171.918 4.55733 172.782 5.784 173.401 7.192C174.019 8.57867 174.329 10.1147 174.329 11.8C174.329 13.464 174.019 15.0107 173.401 16.44C172.782 17.848 171.918 19.0747 170.809 20.12C169.721 21.144 168.43 21.944 166.937 22.52C165.465 23.096 163.854 23.384 162.105 23.384ZM162.073 18.968C163.075 18.968 163.993 18.7973 164.825 18.456C165.678 18.1147 166.425 17.624 167.065 16.984C167.705 16.344 168.195 15.5867 168.537 14.712C168.899 13.8373 169.081 12.8667 169.081 11.8C169.081 10.7333 168.899 9.76267 168.537 8.888C168.195 8.01333 167.705 7.256 167.065 6.616C166.446 5.976 165.71 5.48533 164.857 5.144C164.003 4.80267 163.075 4.632 162.073 4.632C161.07 4.632 160.142 4.80267 159.289 5.144C158.457 5.48533 157.721 5.976 157.081 6.616C156.441 7.256 155.939 8.01333 155.577 8.888C155.235 9.76267 155.065 10.7333 155.065 11.8C155.065 12.8453 155.235 13.816 155.577 14.712C155.939 15.5867 156.43 16.344 157.049 16.984C157.689 17.624 158.435 18.1147 159.289 18.456C160.142 18.7973 161.07 18.968 162.073 18.968ZM184.945 23V0.599998H195.121C197.553 0.599998 199.697 1.06933 201.553 2.008C203.409 2.92533 204.859 4.216 205.905 5.88C206.95 7.544 207.473 9.51733 207.473 11.8C207.473 14.0613 206.95 16.0347 205.905 17.72C204.859 19.384 203.409 20.6853 201.553 21.624C199.697 22.5413 197.553 23 195.121 23H184.945ZM190.129 18.744H194.865C196.358 18.744 197.649 18.4667 198.737 17.912C199.846 17.336 200.699 16.5253 201.297 15.48C201.915 14.4347 202.225 13.208 202.225 11.8C202.225 10.3707 201.915 9.144 201.297 8.12C200.699 7.07467 199.846 6.27467 198.737 5.72C197.649 5.144 196.358 4.856 194.865 4.856H190.129V18.744ZM222.87 9.624H233.654V13.656H222.87V9.624ZM223.254 18.84H235.446V23H218.102V0.599998H235.03V4.76H223.254V18.84Z" fill="white"/>
<path d="M0.656 23H-0.344V24H0.656V23ZM0.656 0.599998V-0.400002H-0.344V0.599998H0.656ZM15.536 1.592L15.1212 2.50197L15.1324 2.50692L15.536 1.592ZM18.896 4.376L18.0572 4.92047L18.0572 4.92047L18.896 4.376ZM15.536 15.864L15.9397 16.779L15.9508 16.7739L15.536 15.864ZM3.536 16.824L2.82403 16.1218L1.14514 17.824H3.536V16.824ZM5.84 14.488H6.84V12.05L5.12803 13.7858L5.84 14.488ZM5.84 23V24H6.84V23H5.84ZM5.84 15.064L5.10958 15.747L6.84 17.5976V15.064H5.84ZM3.536 12.6V11.6H1.23187L2.80558 13.283L3.536 12.6ZM3.536 4.824L2.80558 4.14101L1.23187 5.824H3.536V4.824ZM5.84 2.36H6.84V-0.173588L5.10958 1.677L5.84 2.36ZM1.656 23V0.599998H-0.344V23H1.656ZM0.656 1.6H10.352V-0.400002H0.656V1.6ZM10.352 1.6C12.25 1.6 13.8298 1.91317 15.1212 2.50191L15.9508 0.682091C14.3409 -0.0518428 12.4647 -0.400002 10.352 -0.400002V1.6ZM15.1324 2.50692C16.4224 3.07605 17.3837 3.88287 18.0572 4.92047L19.7348 3.83153C18.8296 2.43712 17.5509 1.38795 15.9396 0.677081L15.1324 2.50692ZM18.0572 4.92047C18.7251 5.9494 19.08 7.20382 19.08 8.728H21.08C21.08 6.88151 20.6455 5.2346 19.7348 3.83153L18.0572 4.92047ZM19.08 8.728C19.08 10.228 18.7264 11.4726 18.0572 12.5035L19.7348 13.5925C20.6442 12.1914 21.08 10.556 21.08 8.728H19.08ZM18.0572 12.5035C17.3818 13.5441 16.4165 14.3636 15.1212 14.9541L15.9508 16.7739C17.5568 16.0418 18.8316 14.9839 19.7348 13.5925L18.0572 12.5035ZM15.1324 14.9491C13.8378 15.5202 12.2539 15.824 10.352 15.824V17.824C12.4608 17.824 14.3329 17.4878 15.9396 16.7789L15.1324 14.9491ZM10.352 15.824H3.536V17.824H10.352V15.824ZM4.24797 17.5262L6.55197 15.1902L5.12803 13.7858L2.82403 16.1218L4.24797 17.5262ZM4.84 14.488V23H6.84V14.488H4.84ZM5.84 22H0.656V24H5.84V22ZM6.57042 14.381L4.26642 11.917L2.80558 13.283L5.10958 15.747L6.57042 14.381ZM3.536 13.6H10.064V11.6H3.536V13.6ZM10.064 13.6C11.7814 13.6 13.2558 13.2373 14.3022 12.3324L12.9938 10.8196C12.4615 11.2801 11.5466 11.6 10.064 11.6V13.6ZM14.3022 12.3324C15.3483 11.4276 15.832 10.1813 15.832 8.728H13.832C13.832 9.70669 13.5264 10.3591 12.9938 10.8196L14.3022 12.3324ZM15.832 8.728C15.832 7.25961 15.3523 5.99989 14.3022 5.09164L12.9938 6.60436C13.5223 7.06144 13.832 7.72173 13.832 8.728H15.832ZM14.3022 5.09164C13.2558 4.18672 11.7814 3.824 10.064 3.824V5.824C11.5466 5.824 12.4615 6.14394 12.9938 6.60436L14.3022 5.09164ZM10.064 3.824H3.536V5.824H10.064V3.824ZM4.26642 5.50699L6.57042 3.04299L5.10958 1.677L2.80558 4.14101L4.26642 5.50699ZM4.84 2.36V15.064H6.84V2.36H4.84ZM26.432 23L25.5186 22.5929L24.8915 24H26.432V23ZM36.416 0.599998V-0.400002H35.7669L35.5026 0.192892L36.416 0.599998ZM41.536 0.599998L42.4489 0.191804L42.1843 -0.400002H41.536V0.599998ZM51.552 23V24H53.0946L52.4649 22.5918L51.552 23ZM46.112 23L45.1881 23.3827L45.4438 24H46.112V23ZM37.92 3.224V2.224H36.4234L36.9961 3.6067L37.92 3.224ZM39.968 3.224L40.8913 3.60798L41.4669 2.224H39.968V3.224ZM31.744 23V24H32.4112L32.6673 23.384L31.744 23ZM31.424 18.2L30.48 17.87L30.0151 19.2H31.424V18.2ZM32.8 14.264V13.264H32.0902L31.856 13.934L32.8 14.264ZM44.32 14.264L45.2616 13.9272L45.0243 13.264H44.32V14.264ZM45.728 18.2V19.2H47.1478L46.6696 17.8632L45.728 18.2ZM27.3454 23.4071L37.3294 1.00711L35.5026 0.192892L25.5186 22.5929L27.3454 23.4071ZM36.416 1.6H41.536V-0.400002H36.416V1.6ZM40.6231 1.00819L50.6391 23.4082L52.4649 22.5918L42.4489 0.191804L40.6231 1.00819ZM51.552 22H46.112V24H51.552V22ZM47.0359 22.6173L38.8439 2.8413L36.9961 3.6067L45.1881 23.3827L47.0359 22.6173ZM37.92 4.224H39.968V2.224H37.92V4.224ZM39.0447 2.84002L30.8207 22.616L32.6673 23.384L40.8913 3.60798L39.0447 2.84002ZM31.744 22H26.432V24H31.744V22ZM32.368 18.53L33.744 14.594L31.856 13.934L30.48 17.87L32.368 18.53ZM32.8 15.264H44.32V13.264H32.8V15.264ZM43.3784 14.6008L44.7864 18.5368L46.6696 17.8632L45.2616 13.9272L43.3784 14.6008ZM45.728 17.2H31.424V19.2H45.728V17.2ZM60.596 23H59.596V24H60.596V23ZM60.596 0.599998V-0.400002H59.596V0.599998H60.596ZM77.204 2.008L76.7527 2.9004L76.7609 2.90448L77.204 2.008ZM81.556 5.88L80.7092 6.41195L81.556 5.88ZM81.556 17.72L82.4028 18.252L82.4058 18.2471L81.556 17.72ZM77.204 21.624L77.6471 22.5205L77.6553 22.5164L77.204 21.624ZM65.78 18.744H64.78V19.744H65.78V18.744ZM74.388 17.912L74.8422 18.8029L74.8488 18.7995L74.388 17.912ZM76.948 15.48L76.0874 14.9707L76.0835 14.9772L76.0798 14.9839L76.948 15.48ZM76.948 8.12L76.0798 8.61614L76.0858 8.6267L76.0921 8.63711L76.948 8.12ZM74.388 5.72L73.9201 6.60379L73.9304 6.60923L73.9408 6.61443L74.388 5.72ZM65.78 4.856V3.856H64.78V4.856H65.78ZM61.596 23V0.599998H59.596V23H61.596ZM60.596 1.6H70.772V-0.400002H60.596V1.6ZM70.772 1.6C73.0737 1.6 75.0585 2.04353 76.7527 2.90037L77.6553 1.11563C75.6375 0.0951388 73.3343 -0.400002 70.772 -0.400002V1.6ZM76.7609 2.90448C78.4605 3.74452 79.7675 4.91296 80.7092 6.41195L82.4028 5.34805C81.2538 3.51904 79.6595 2.10615 77.6471 1.11152L76.7609 2.90448ZM80.7092 6.41195C81.6391 7.89223 82.124 9.67455 82.124 11.8H84.124C84.124 9.36012 83.5635 7.19577 82.4028 5.34805L80.7092 6.41195ZM82.124 11.8C82.124 13.9018 81.6402 15.6871 80.7062 17.1929L82.4058 18.2471C83.5625 16.3822 84.124 14.2209 84.124 11.8H82.124ZM80.7092 17.1881C79.7662 18.6891 78.4564 19.87 76.7527 20.7316L77.6553 22.5164C79.6636 21.5007 81.2551 20.0789 82.4028 18.2519L80.7092 17.1881ZM76.7609 20.7275C75.0648 21.5658 73.077 22 70.772 22V24C73.331 24 75.6312 23.5168 77.6471 22.5205L76.7609 20.7275ZM70.772 22H60.596V24H70.772V22ZM65.78 19.744H70.516V17.744H65.78V19.744ZM70.516 19.744C72.1326 19.744 73.5856 19.4435 74.8422 18.8029L73.9338 17.0211C73.0144 17.4898 71.8861 17.744 70.516 17.744V19.744ZM74.8488 18.7995C76.1219 18.1385 77.1198 17.195 77.8162 15.9761L76.0798 14.9839C75.5816 15.8557 74.8728 16.5335 73.9272 17.0245L74.8488 18.7995ZM77.8086 15.9893C78.5322 14.7667 78.876 13.3583 78.876 11.8H76.876C76.876 13.0577 76.6011 14.1027 76.0874 14.9707L77.8086 15.9893ZM78.876 11.8C78.876 10.2241 78.5337 8.81088 77.8039 7.60288L76.0921 8.63711C76.5996 9.47712 76.876 10.5172 76.876 11.8H78.876ZM77.8162 7.62386C77.1179 6.40171 76.1155 5.46571 74.8352 4.82557L73.9408 6.61443C74.8792 7.08363 75.5835 7.74762 76.0798 8.61614L77.8162 7.62386ZM74.8559 4.83621C73.5961 4.16927 72.138 3.856 70.516 3.856V5.856C71.8806 5.856 73.0039 6.11873 73.9201 6.60379L74.8559 4.83621ZM70.516 3.856H65.78V5.856H70.516V3.856ZM64.78 4.856V18.744H66.78V4.856H64.78ZM92.0947 23H91.0947V24H92.0947V23ZM92.0947 19.64L91.3251 19.0016L91.0947 19.2792V19.64H92.0947ZM105.951 2.936L106.898 2.61496L106.323 0.920439L105.181 2.29756L105.951 2.936ZM106.591 4.824V5.824H107.986L107.538 4.50296L106.591 4.824ZM92.3507 4.824H91.3507V5.824H92.3507V4.824ZM92.3507 0.599998V-0.400002H91.3507V0.599998H92.3507ZM111.199 0.599998H112.199V-0.400002H111.199V0.599998ZM111.199 3.96L111.969 4.59757L112.199 4.32013V3.96H111.199ZM97.3747 20.664L96.4277 20.985L97.0029 22.6818L98.1451 21.3016L97.3747 20.664ZM96.7347 18.776V17.776H95.3399L95.7877 19.097L96.7347 18.776ZM111.679 18.776H112.679V17.776H111.679V18.776ZM111.679 23V24H112.679V23H111.679ZM93.0947 23V19.64H91.0947V23H93.0947ZM92.8644 20.2784L106.72 3.57444L105.181 2.29756L91.3251 19.0016L92.8644 20.2784ZM105.004 3.25704L105.644 5.14504L107.538 4.50296L106.898 2.61496L105.004 3.25704ZM106.591 3.824H92.3507V5.824H106.591V3.824ZM93.3507 4.824V0.599998H91.3507V4.824H93.3507ZM92.3507 1.6H111.199V-0.400002H92.3507V1.6ZM110.199 0.599998V3.96H112.199V0.599998H110.199ZM110.428 3.32243L96.6044 20.0264L98.1451 21.3016L111.969 4.59757L110.428 3.32243ZM98.3218 20.343L97.6818 18.455L95.7877 19.097L96.4277 20.985L98.3218 20.343ZM96.7347 19.776H111.679V17.776H96.7347V19.776ZM110.679 18.776V23H112.679V18.776H110.679ZM111.679 22H92.0947V24H111.679V22ZM127.393 22.552L127.028 23.4832L127.036 23.4864L127.045 23.4894L127.393 22.552ZM123.553 20.12L122.86 20.8411L122.86 20.8411L123.553 20.12ZM120.993 16.44L120.072 16.8306L120.077 16.8423L120.993 16.44ZM120.993 7.16L120.077 6.75769L120.072 6.76945L120.993 7.16ZM123.553 3.48L122.867 2.75218L122.86 2.75889L123.553 3.48ZM127.425 1.08L127.777 2.01584L127.789 2.01124L127.425 1.08ZM137.505 1.24L137.103 2.15587L137.111 2.15917L137.118 2.16234L137.505 1.24ZM141.473 4.184L142.151 4.9188L142.844 4.27928L142.246 3.55007L141.473 4.184ZM138.145 7.256L137.393 7.9158L138.07 8.68616L138.823 7.9908L138.145 7.256ZM135.585 5.304L135.154 6.20648L135.162 6.2105L135.171 6.21437L135.585 5.304ZM127.361 6.616L128.068 7.32311L128.068 7.32311L127.361 6.616ZM125.857 8.888L124.933 8.50498L124.929 8.51468L124.925 8.52446L125.857 8.888ZM125.857 14.712L124.925 15.0755L124.929 15.0853L124.933 15.095L125.857 14.712ZM127.361 16.984L126.654 17.6911L126.654 17.6911L127.361 16.984ZM135.585 18.328L135.999 19.2384L136.007 19.2345L136.015 19.2305L135.585 18.328ZM138.145 16.312L138.823 15.5772L138.061 14.8735L137.385 15.6612L138.145 16.312ZM141.473 19.384L142.246 20.0179L142.844 19.2887L142.151 18.6492L141.473 19.384ZM137.505 22.36L137.108 21.4421L137.103 21.4441L137.505 22.36ZM132.225 22.384C130.606 22.384 129.114 22.1245 127.741 21.6146L127.045 23.4894C128.658 24.0889 130.388 24.384 132.225 24.384V22.384ZM127.757 21.6208C126.401 21.0903 125.234 20.349 124.246 19.3989L122.86 20.8411C124.047 21.9817 125.44 22.8617 127.028 23.4832L127.757 21.6208ZM124.246 19.3989C123.254 18.446 122.475 17.3283 121.908 16.0377L120.077 16.8423C120.748 18.3677 121.676 19.7033 122.86 20.8411L124.246 19.3989ZM121.913 16.0494C121.374 14.777 121.097 13.3649 121.097 11.8H119.097C119.097 13.6058 119.417 15.287 120.072 16.8305L121.913 16.0494ZM121.097 11.8C121.097 10.2351 121.374 8.82296 121.913 7.55055L120.072 6.76945C119.417 8.31303 119.097 9.99421 119.097 11.8H121.097ZM121.908 7.56227C122.475 6.27173 123.254 5.15398 124.246 4.2011L122.86 2.75889C121.676 3.89668 120.748 5.23227 120.077 6.75773L121.908 7.56227ZM124.239 4.20779C125.249 3.25604 126.425 2.52534 127.777 2.01577L127.072 0.144227C125.48 0.74399 124.076 1.61329 122.867 2.75221L124.239 4.20779ZM127.789 2.01124C129.133 1.48528 130.619 1.216 132.257 1.216V-0.784C130.396 -0.784 128.66 -0.477286 127.06 0.148755L127.789 2.01124ZM132.257 1.216C134.079 1.216 135.689 1.53602 137.103 2.15587L137.906 0.324131C136.206 -0.421352 134.317 -0.784 132.257 -0.784V1.216ZM137.118 2.16234C138.549 2.76171 139.738 3.64513 140.699 4.81793L142.246 3.55007C141.074 2.1202 139.618 1.04096 137.891 0.317662L137.118 2.16234ZM140.794 3.4492L137.466 6.5212L138.823 7.9908L142.151 4.9188L140.794 3.4492ZM138.896 6.5962C138.047 5.62877 137.082 4.88607 135.999 4.39363L135.171 6.21437C135.965 6.57526 136.707 7.13389 137.393 7.9158L138.896 6.5962ZM136.015 4.40152C134.933 3.88509 133.761 3.632 132.513 3.632V5.632C133.483 5.632 134.359 5.82691 135.154 6.20648L136.015 4.40152ZM132.513 3.632C131.357 3.632 130.272 3.82103 129.269 4.21242L129.996 6.07558C130.743 5.78431 131.578 5.632 132.513 5.632V3.632ZM129.269 4.21242C128.271 4.6021 127.395 5.16745 126.654 5.90889L128.068 7.32311C128.606 6.78455 129.246 6.36856 129.996 6.07558L129.269 4.21242ZM126.654 5.90889C125.917 6.64593 125.344 7.51481 124.933 8.50498L126.78 9.27101C127.095 8.51185 127.525 7.86607 128.068 7.32311L126.654 5.90889ZM124.925 8.52446C124.533 9.52966 124.345 10.6257 124.345 11.8H126.345C126.345 10.8409 126.498 9.99567 126.788 9.25154L124.925 8.52446ZM124.345 11.8C124.345 12.9743 124.533 14.0703 124.925 15.0755L126.788 14.3485C126.498 13.6043 126.345 12.7591 126.345 11.8H124.345ZM124.933 15.095C125.344 16.0852 125.917 16.9541 126.654 17.6911L128.068 16.2769C127.525 15.7339 127.095 15.0881 126.78 14.329L124.933 15.095ZM126.654 17.6911C127.395 18.4325 128.271 18.9979 129.269 19.3876L129.996 17.5244C129.246 17.2314 128.606 16.8155 128.068 16.2769L126.654 17.6911ZM129.269 19.3876C130.272 19.779 131.357 19.968 132.513 19.968V17.968C131.578 17.968 130.743 17.8157 129.996 17.5244L129.269 19.3876ZM132.513 19.968C133.754 19.968 134.92 19.7285 135.999 19.2384L135.171 17.4176C134.372 17.7808 133.49 17.968 132.513 17.968V19.968ZM136.015 19.2305C137.096 18.7148 138.057 17.9504 138.904 16.9628L137.385 15.6612C136.696 16.4656 135.951 17.0452 135.154 17.4255L136.015 19.2305ZM137.466 17.0468L140.794 20.1188L142.151 18.6492L138.823 15.5772L137.466 17.0468ZM140.699 18.7501C139.736 19.9253 138.544 20.8213 137.108 21.4421L137.902 23.2779C139.623 22.5334 141.076 21.4454 142.246 20.0179L140.699 18.7501ZM137.103 21.4441C135.691 22.0634 134.07 22.384 132.225 22.384V24.384C134.304 24.384 136.204 24.0219 137.906 23.2759L137.103 21.4441ZM157.177 22.52L156.817 23.453L156.821 23.4547L157.177 22.52ZM153.273 20.088L152.58 20.8091L152.587 20.8158L153.273 20.088ZM150.713 16.408L149.792 16.7986L149.797 16.8103L150.713 16.408ZM150.713 7.192L149.797 6.78969L149.792 6.80145L150.713 7.192ZM157.209 1.08L156.849 0.146996L156.849 0.146996L157.209 1.08ZM166.937 1.08L166.572 2.01125L166.577 2.013L166.937 1.08ZM170.809 3.512L170.116 4.23314L170.123 4.23979L170.809 3.512ZM173.401 7.192L172.485 7.59428L172.488 7.59944L173.401 7.192ZM173.401 16.44L174.316 16.8423L174.318 16.8372L173.401 16.44ZM170.809 20.12L171.494 20.8482L171.495 20.8478L170.809 20.12ZM166.937 22.52L166.577 21.587L166.572 21.5888L166.937 22.52ZM164.825 18.456L164.453 17.5275L164.445 17.5308L164.825 18.456ZM167.065 16.984L166.358 16.2769L166.358 16.2769L167.065 16.984ZM168.537 14.712L167.613 14.329L167.609 14.3387L167.605 14.3485L168.537 14.712ZM168.537 8.888L167.605 9.25154L167.609 9.26132L167.613 9.27101L168.537 8.888ZM167.065 6.616L166.346 7.31102L166.352 7.31711L166.358 7.32311L167.065 6.616ZM164.857 5.144L164.485 6.07248L164.485 6.07248L164.857 5.144ZM159.289 5.144L158.917 4.21549L158.909 4.21883L159.289 5.144ZM157.081 6.616L157.788 7.32311L157.788 7.32311L157.081 6.616ZM155.577 8.888L154.653 8.50498L154.649 8.51468L154.645 8.52446L155.577 8.888ZM155.577 14.712L154.642 15.068L154.647 15.0816L154.653 15.095L155.577 14.712ZM157.049 16.984L156.33 17.679L156.336 17.6851L156.342 17.6911L157.049 16.984ZM159.289 18.456L158.917 19.3845L158.917 19.3845L159.289 18.456ZM162.105 22.384C160.444 22.384 158.923 22.1143 157.532 21.5853L156.821 23.4547C158.46 24.0777 160.224 24.384 162.105 24.384V22.384ZM157.537 21.587C156.158 21.0553 154.969 20.3123 153.959 19.3602L152.587 20.8158C153.795 21.9544 155.209 22.8327 156.817 23.453L157.537 21.587ZM153.966 19.3669C152.974 18.414 152.195 17.2963 151.628 16.0057L149.797 16.8103C150.468 18.3357 151.396 19.6713 152.58 20.8091L153.966 19.3669ZM151.633 16.0174C151.093 14.7435 150.817 13.3417 150.817 11.8H148.817C148.817 13.5863 149.138 15.2565 149.792 16.7985L151.633 16.0174ZM150.817 11.8C150.817 10.2583 151.093 8.85651 151.633 7.58255L149.792 6.80145C149.138 8.34349 148.817 10.0137 148.817 11.8H150.817ZM151.628 7.59427C152.193 6.30796 152.98 5.19228 153.991 4.23979L152.619 2.78421C151.411 3.92239 150.469 5.26004 149.797 6.78973L151.628 7.59427ZM153.991 4.23979C155.001 3.28774 156.19 2.54473 157.569 2.013L156.849 0.146996C155.241 0.767263 153.827 1.64559 152.619 2.78421L153.991 4.23979ZM157.569 2.013C158.937 1.48523 160.435 1.216 162.073 1.216V-0.784C160.212 -0.784 158.467 -0.477233 156.849 0.146996L157.569 2.013ZM162.073 1.216C163.734 1.216 165.23 1.48582 166.572 2.01124L167.301 0.148755C165.7 -0.47782 163.953 -0.784 162.073 -0.784V1.216ZM166.577 2.013C167.954 2.54414 169.129 3.28533 170.116 4.2331L171.502 2.79089C170.312 1.648 168.906 0.767859 167.297 0.146996L166.577 2.013ZM170.123 4.23979C171.134 5.19228 171.92 6.30795 172.485 7.59427L174.316 6.78973C173.644 5.26004 172.702 3.92239 171.495 2.78421L170.123 4.23979ZM172.488 7.59944C173.043 8.84444 173.329 10.2395 173.329 11.8H175.329C175.329 9.98979 174.996 8.31289 174.314 6.78456L172.488 7.59944ZM173.329 11.8C173.329 13.3368 173.044 14.7473 172.483 16.0428L174.318 16.8372C174.995 15.2741 175.329 13.5912 175.329 11.8H173.329ZM172.485 16.0377C171.92 17.324 171.134 18.4397 170.123 19.3922L171.495 20.8478C172.702 19.7096 173.644 18.372 174.316 16.8423L172.485 16.0377ZM170.123 19.3918C169.136 20.3209 167.958 21.0542 166.577 21.587L167.297 23.453C168.902 22.8338 170.305 21.9671 171.494 20.8482L170.123 19.3918ZM166.572 21.5888C165.228 22.1147 163.743 22.384 162.105 22.384V24.384C163.965 24.384 165.701 24.0773 167.301 23.4512L166.572 21.5888ZM162.073 19.968C163.191 19.968 164.239 19.7773 165.204 19.3812L164.445 17.5308C163.747 17.8174 162.96 17.968 162.073 17.968V19.968ZM165.196 19.3845C166.173 18.9936 167.035 18.4284 167.772 17.6911L166.358 16.2769C165.815 16.8196 165.183 17.2357 164.453 17.5275L165.196 19.3845ZM167.772 17.6911C168.513 16.9497 169.079 16.0741 169.468 15.0755L167.605 14.3485C167.312 15.0992 166.896 15.7383 166.358 16.2769L167.772 17.6911ZM169.46 15.095C169.879 14.0845 170.081 12.9815 170.081 11.8H168.081C168.081 12.7518 167.919 13.5902 167.613 14.329L169.46 15.095ZM170.081 11.8C170.081 10.6185 169.879 9.5155 169.46 8.50498L167.613 9.27101C167.919 10.0098 168.081 10.8482 168.081 11.8H170.081ZM169.468 8.52446C169.079 7.52591 168.513 6.65033 167.772 5.90889L166.358 7.32311C166.896 7.86167 167.312 8.50076 167.605 9.25154L169.468 8.52446ZM167.784 5.92098C167.064 5.17617 166.208 4.60752 165.228 4.21552L164.485 6.07248C165.212 6.36314 165.828 6.77583 166.346 7.31102L167.784 5.92098ZM165.228 4.21552C164.246 3.82281 163.191 3.632 162.073 3.632V5.632C162.96 5.632 163.76 5.78252 164.485 6.07248L165.228 4.21552ZM162.073 3.632C160.954 3.632 159.899 3.82281 158.917 4.21552L159.66 6.07248C160.385 5.78252 161.186 5.632 162.073 5.632V3.632ZM158.909 4.21883C157.954 4.61077 157.107 5.17585 156.374 5.90889L157.788 7.32311C158.335 6.77615 158.96 6.35989 159.668 6.06917L158.909 4.21883ZM156.374 5.90889C155.637 6.64593 155.064 7.51481 154.653 8.50498L156.5 9.27101C156.815 8.51185 157.245 7.86607 157.788 7.32311L156.374 5.90889ZM154.645 8.52446C154.253 9.52966 154.065 10.6257 154.065 11.8H156.065C156.065 10.8409 156.218 9.99567 156.508 9.25154L154.645 8.52446ZM154.065 11.8C154.065 12.956 154.254 14.0485 154.642 15.068L156.511 14.356C156.217 13.5835 156.065 12.7347 156.065 11.8H154.065ZM154.653 15.095C155.061 16.0781 155.618 16.9432 156.33 17.679L157.768 16.289C157.242 15.7448 156.818 15.0952 156.5 14.329L154.653 15.095ZM156.342 17.6911C157.079 18.4284 157.94 18.9936 158.917 19.3845L159.66 17.5275C158.931 17.2357 158.299 16.8196 157.756 16.2769L156.342 17.6911ZM158.917 19.3845C159.899 19.7772 160.954 19.968 162.073 19.968V17.968C161.186 17.968 160.385 17.8175 159.66 17.5275L158.917 19.3845ZM184.945 23H183.945V24H184.945V23ZM184.945 0.599998V-0.400002H183.945V0.599998H184.945ZM201.553 2.008L201.101 2.9004L201.11 2.90448L201.553 2.008ZM205.905 5.88L205.058 6.41195L205.905 5.88ZM205.905 17.72L206.752 18.252L206.755 18.2471L205.905 17.72ZM201.553 21.624L201.996 22.5205L202.004 22.5164L201.553 21.624ZM190.129 18.744H189.129V19.744H190.129V18.744ZM198.737 17.912L199.191 18.8029L199.198 18.7995L198.737 17.912ZM201.297 15.48L200.436 14.9707L200.432 14.9772L200.429 14.9839L201.297 15.48ZM201.297 8.12L200.429 8.61614L200.435 8.6267L200.441 8.63711L201.297 8.12ZM198.737 5.72L198.269 6.60379L198.279 6.60923L198.29 6.61443L198.737 5.72ZM190.129 4.856V3.856H189.129V4.856H190.129ZM185.945 23V0.599998H183.945V23H185.945ZM184.945 1.6H195.121V-0.400002H184.945V1.6ZM195.121 1.6C197.422 1.6 199.407 2.04353 201.101 2.90037L202.004 1.11563C199.986 0.0951388 197.683 -0.400002 195.121 -0.400002V1.6ZM201.11 2.90448C202.809 3.74452 204.116 4.91296 205.058 6.41195L206.752 5.34805C205.603 3.51904 204.008 2.10615 201.996 1.11152L201.11 2.90448ZM205.058 6.41195C205.988 7.89223 206.473 9.67455 206.473 11.8H208.473C208.473 9.36012 207.912 7.19577 206.752 5.34805L205.058 6.41195ZM206.473 11.8C206.473 13.9018 205.989 15.6871 205.055 17.1929L206.755 18.2471C207.911 16.3822 208.473 14.2209 208.473 11.8H206.473ZM205.058 17.1881C204.115 18.6891 202.805 19.87 201.101 20.7316L202.004 22.5164C204.012 21.5007 205.604 20.0789 206.752 18.2519L205.058 17.1881ZM201.11 20.7275C199.414 21.5658 197.426 22 195.121 22V24C197.68 24 199.98 23.5168 201.996 22.5205L201.11 20.7275ZM195.121 22H184.945V24H195.121V22ZM190.129 19.744H194.865V17.744H190.129V19.744ZM194.865 19.744C196.481 19.744 197.934 19.4435 199.191 18.8029L198.283 17.0211C197.363 17.4898 196.235 17.744 194.865 17.744V19.744ZM199.198 18.7995C200.471 18.1385 201.469 17.195 202.165 15.9761L200.429 14.9839C199.93 15.8557 199.222 16.5335 198.276 17.0245L199.198 18.7995ZM202.157 15.9893C202.881 14.7667 203.225 13.3583 203.225 11.8H201.225C201.225 13.0577 200.95 14.1027 200.436 14.9707L202.157 15.9893ZM203.225 11.8C203.225 10.2241 202.882 8.81088 202.153 7.60288L200.441 8.63711C200.948 9.47712 201.225 10.5172 201.225 11.8H203.225ZM202.165 7.62386C201.467 6.40171 200.464 5.46571 199.184 4.82557L198.29 6.61443C199.228 7.08363 199.932 7.74762 200.429 8.61614L202.165 7.62386ZM199.205 4.83621C197.945 4.16927 196.487 3.856 194.865 3.856V5.856C196.229 5.856 197.353 6.11873 198.269 6.60379L199.205 4.83621ZM194.865 3.856H190.129V5.856H194.865V3.856ZM189.129 4.856V18.744H191.129V4.856H189.129ZM222.87 9.624V8.624H221.87V9.624H222.87ZM233.654 9.624H234.654V8.624H233.654V9.624ZM233.654 13.656V14.656H234.654V13.656H233.654ZM222.87 13.656H221.87V14.656H222.87V13.656ZM223.254 18.84H222.254V19.84H223.254V18.84ZM235.446 18.84H236.446V17.84H235.446V18.84ZM235.446 23V24H236.446V23H235.446ZM218.102 23H217.102V24H218.102V23ZM218.102 0.599998V-0.400002H217.102V0.599998H218.102ZM235.03 0.599998H236.03V-0.400002H235.03V0.599998ZM235.03 4.76V5.76H236.03V4.76H235.03ZM223.254 4.76V3.76H222.254V4.76H223.254ZM222.87 10.624H233.654V8.624H222.87V10.624ZM232.654 9.624V13.656H234.654V9.624H232.654ZM233.654 12.656H222.87V14.656H233.654V12.656ZM223.87 13.656V9.624H221.87V13.656H223.87ZM223.254 19.84H235.446V17.84H223.254V19.84ZM234.446 18.84V23H236.446V18.84H234.446ZM235.446 22H218.102V24H235.446V22ZM219.102 23V0.599998H217.102V23H219.102ZM218.102 1.6H235.03V-0.400002H218.102V1.6ZM234.03 0.599998V4.76H236.03V0.599998H234.03ZM235.03 3.76H223.254V5.76H235.03V3.76ZM222.254 4.76V18.84H224.254V4.76H222.254Z" fill="black"/>
</svg>
